<?xml version="1.0" encoding="UTF-8"?>
<svg width="105px" height="49px" viewBox="0 0 105 49" version="1.1" xmlns="http://www.w3.org/2000/svg" xmlns:xlink="http://www.w3.org/1999/xlink">
    <!-- Generator: Sketch 50.2 (55047) - http://www.bohemiancoding.com/sketch -->
    <title>Mindmap2</title>
    <desc>Created with Sketch.</desc>
    <defs></defs>
    <g id="Page-1" stroke="none" stroke-width="1" fill="none" fill-rule="evenodd">
        <g id="Mindmap2" transform="translate(-1.500000, -0.696554)" fill-rule="nonzero">
            <g id="Group-43" transform="translate(61.000000, 0.000000)">
                <g id="Group-41" transform="translate(28.650697, 0.322921)" fill="#767676">
                    <path d="M2.08588957,18.2503457 L2.08588957,22.2503457 L14.0858896,22.2503457 L14.0858896,18.2503457 L2.08588957,18.2503457 Z M1.08588957,16.2503457 L15.0858896,16.2503457 C15.6381743,16.2503457 16.0858896,16.698061 16.0858896,17.2503457 L16.0858896,23.2503457 C16.0858896,23.8026305 15.6381743,24.2503457 15.0858896,24.2503457 L1.08588957,24.2503457 C0.533604821,24.2503457 0.0858895706,23.8026305 0.0858895706,23.2503457 L0.0858895706,17.2503457 C0.0858895706,16.698061 0.533604821,16.2503457 1.08588957,16.2503457 Z" id="Rectangle-30-Copy-15"></path>
                    <path d="M2.08588957,2.37687482 L2.08588957,6.37687482 L14.0858896,6.37687482 L14.0858896,2.37687482 L2.08588957,2.37687482 Z M1.08588957,0.376874819 L15.0858896,0.376874819 C15.6381743,0.376874819 16.0858896,0.82459007 16.0858896,1.37687482 L16.0858896,7.37687482 C16.0858896,7.92915957 15.6381743,8.37687482 15.0858896,8.37687482 L1.08588957,8.37687482 C0.533604821,8.37687482 0.0858895706,7.92915957 0.0858895706,7.37687482 L0.0858895706,1.37687482 C0.0858895706,0.82459007 0.533604821,0.376874819 1.08588957,0.376874819 Z" id="Rectangle-30-Copy-16"></path>
                </g>
                <path d="M8.73952262,32.1513849 L8.73952262,36.1513849 L20.7395226,36.1513849 L20.7395226,32.1513849 L8.73952262,32.1513849 Z M7.73952262,30.1513849 L21.7395226,30.1513849 C22.2918074,30.1513849 22.7395226,30.5991001 22.7395226,31.1513849 L22.7395226,37.1513849 C22.7395226,37.7036696 22.2918074,38.1513849 21.7395226,38.1513849 L7.73952262,38.1513849 C7.18723787,38.1513849 6.73952262,37.7036696 6.73952262,37.1513849 L6.73952262,31.1513849 C6.73952262,30.5991001 7.18723787,30.1513849 7.73952262,30.1513849 Z" id="Rectangle-30-Copy-12" fill="#767676"></path>
                <path d="M8.73952262,11.3212676 L8.73952262,15.3212676 L20.7395226,15.3212676 L20.7395226,11.3212676 L8.73952262,11.3212676 Z M7.73952262,9.32126764 L21.7395226,9.32126764 C22.2918074,9.32126764 22.7395226,9.76898289 22.7395226,10.3212676 L22.7395226,16.3212676 C22.7395226,16.8735524 22.2918074,17.3212676 21.7395226,17.3212676 L7.73952262,17.3212676 C7.18723787,17.3212676 6.73952262,16.8735524 6.73952262,16.3212676 L6.73952262,10.3212676 C6.73952262,9.76898289 7.18723787,9.32126764 7.73952262,9.32126764 Z" id="Rectangle-30-Copy-13" fill="#767676"></path>
                <polygon id="Path-11" fill="#979797" points="29.0007642 20.5735144 29.0007642 21.5735144 24.9644661 21.5735144 24.9644661 4.5 29 4.5 29 5.5 25.9644661 5.5 25.9644661 20.5735144"></polygon>
                <polygon id="Path-11-Copy" fill="#979797" points="3.7032245 33.7641582 6.73952262 33.7641582 6.73952262 34.7641582 2.7032245 34.7641582 2.7032245 13.2358418 6.73875841 13.2358418 6.73875841 14.2358418 3.7032245 14.2358418"></polygon>
                <polygon id="Path-12" fill="#979797" points="22.5 14 22.5 13 25 13 25 14"></polygon>
                <polygon id="Path-12-Copy" fill="#979797" points="0.238758408 24.9632428 0.238758408 23.9632428 2.73875841 23.9632428 2.73875841 24.9632428"></polygon>
            </g>
            <g id="Group-43-Copy" transform="translate(23.703347, 30.000000) scale(-1, -1) translate(-23.703347, -30.000000) translate(0.703347, 10.500000)">
                <g id="Group-41" transform="translate(28.650697, 0.322921)" fill="#767676">
                    <path d="M2.08588957,18.2503457 L2.08588957,22.2503457 L14.0858896,22.2503457 L14.0858896,18.2503457 L2.08588957,18.2503457 Z M1.08588957,16.2503457 L15.0858896,16.2503457 C15.6381743,16.2503457 16.0858896,16.698061 16.0858896,17.2503457 L16.0858896,23.2503457 C16.0858896,23.8026305 15.6381743,24.2503457 15.0858896,24.2503457 L1.08588957,24.2503457 C0.533604821,24.2503457 0.0858895706,23.8026305 0.0858895706,23.2503457 L0.0858895706,17.2503457 C0.0858895706,16.698061 0.533604821,16.2503457 1.08588957,16.2503457 Z" id="Rectangle-30-Copy-15"></path>
                    <path d="M2.08588957,2.37687482 L2.08588957,6.37687482 L14.0858896,6.37687482 L14.0858896,2.37687482 L2.08588957,2.37687482 Z M1.08588957,0.376874819 L15.0858896,0.376874819 C15.6381743,0.376874819 16.0858896,0.82459007 16.0858896,1.37687482 L16.0858896,7.37687482 C16.0858896,7.92915957 15.6381743,8.37687482 15.0858896,8.37687482 L1.08588957,8.37687482 C0.533604821,8.37687482 0.0858895706,7.92915957 0.0858895706,7.37687482 L0.0858895706,1.37687482 C0.0858895706,0.82459007 0.533604821,0.376874819 1.08588957,0.376874819 Z" id="Rectangle-30-Copy-16"></path>
                </g>
                <path d="M8.73952262,32.1513849 L8.73952262,36.1513849 L20.7395226,36.1513849 L20.7395226,32.1513849 L8.73952262,32.1513849 Z M7.73952262,30.1513849 L21.7395226,30.1513849 C22.2918074,30.1513849 22.7395226,30.5991001 22.7395226,31.1513849 L22.7395226,37.1513849 C22.7395226,37.7036696 22.2918074,38.1513849 21.7395226,38.1513849 L7.73952262,38.1513849 C7.18723787,38.1513849 6.73952262,37.7036696 6.73952262,37.1513849 L6.73952262,31.1513849 C6.73952262,30.5991001 7.18723787,30.1513849 7.73952262,30.1513849 Z" id="Rectangle-30-Copy-12" fill="#767676"></path>
                <path d="M8.73952262,11.3212676 L8.73952262,15.3212676 L20.7395226,15.3212676 L20.7395226,11.3212676 L8.73952262,11.3212676 Z M7.73952262,9.32126764 L21.7395226,9.32126764 C22.2918074,9.32126764 22.7395226,9.76898289 22.7395226,10.3212676 L22.7395226,16.3212676 C22.7395226,16.8735524 22.2918074,17.3212676 21.7395226,17.3212676 L7.73952262,17.3212676 C7.18723787,17.3212676 6.73952262,16.8735524 6.73952262,16.3212676 L6.73952262,10.3212676 C6.73952262,9.76898289 7.18723787,9.32126764 7.73952262,9.32126764 Z" id="Rectangle-30-Copy-13" fill="#767676"></path>
                <polygon id="Path-11" fill="#979797" points="29.0007642 20.5735144 29.0007642 21.5735144 24.9644661 21.5735144 24.9644661 4.5 29 4.5 29 5.5 25.9644661 5.5 25.9644661 20.5735144"></polygon>
                <polygon id="Path-11-Copy" fill="#979797" points="3.7032245 33.7641582 6.73952262 33.7641582 6.73952262 34.7641582 2.7032245 34.7641582 2.7032245 13.2358418 6.73875841 13.2358418 6.73875841 14.2358418 3.7032245 14.2358418"></polygon>
                <polygon id="Path-12" fill="#979797" points="22.5 14 22.5 13 25 13 25 14"></polygon>
                <polygon id="Path-12-Copy" fill="#979797" points="0.238758408 24.9632428 0.238758408 23.9632428 2.73875841 23.9632428 2.73875841 24.9632428"></polygon>
            </g>
            <path d="M47.7033471,22.790255 L47.7033471,26.790255 L59.7033471,26.790255 L59.7033471,22.790255 L47.7033471,22.790255 Z M46.7033471,20.790255 L60.7033471,20.790255 C61.2556318,20.790255 61.7033471,21.2379702 61.7033471,21.790255 L61.7033471,27.790255 C61.7033471,28.3425397 61.2556318,28.790255 60.7033471,28.790255 L46.7033471,28.790255 C46.1510623,28.790255 45.7033471,28.3425397 45.7033471,27.790255 L45.7033471,21.790255 C45.7033471,21.2379702 46.1510623,20.790255 46.7033471,20.790255 Z" id="Rectangle-30-Copy" fill="#767676"></path>
        </g>
    </g>
</svg>