<?xml version="1.0" encoding="UTF-8"?>
<svg width="106px" height="45px" viewBox="0 0 106 45" version="1.1" xmlns="http://www.w3.org/2000/svg" xmlns:xlink="http://www.w3.org/1999/xlink">
    <!-- Generator: Sketch 50.2 (55047) - http://www.bohemiancoding.com/sketch -->
    <title>Mindmap4</title>
    <desc>Created with Sketch.</desc>
    <defs></defs>
    <g id="Page-1" stroke="none" stroke-width="1" fill="none" fill-rule="evenodd">
        <g id="Mindmap4" transform="translate(-1.000000, -0.196554)" fill="#979797">
            <g id="Group-39-Copy" transform="translate(84.500000, 18.000000) scale(-1, 1) translate(-84.500000, -18.000000) translate(61.000000, 0.000000)">
                <g id="Group-40" transform="translate(38.815951, 9.000000)" fill-rule="nonzero">
                    <path d="M0.332721862,13.1225916 L-0.0719977312,12.2081508 C1.40172171,11.5559018 2.59301823,9.40644581 3.42480852,5.73094063 C4.34346701,1.67158332 5.60974888,-0.325620497 7.40872285,-0.0459786699 L7.25512234,0.942154359 C6.2218279,0.781533721 5.2084791,2.37980669 4.40014465,5.95166543 C3.50494202,9.90737629 2.17482886,12.3072991 0.332721862,13.1225916 Z" id="Path-10-Copy-4" transform="translate(3.668363, 6.525402) scale(-1, 1) translate(-3.668363, -6.525402) "></path>
                    <path d="M0.347132733,26.4161048 L-0.0864086019,25.5149711 C1.38976099,24.8047762 2.58859496,22.4534635 3.42297211,18.445643 C4.3404767,14.0385308 5.59675087,11.8846627 7.41522869,12.1919382 L7.2486165,13.1779607 C6.23482591,13.0066565 5.21146941,14.7611898 4.40198107,18.6494602 C3.50936528,22.9370223 2.18678958,25.5310338 0.347132733,26.4161048 Z" id="Path-10-Copy-5" transform="translate(3.664410, 19.289610) scale(-1, -1) translate(-3.664410, -19.289610) "></path>
                </g>
                <g id="Group-41" transform="translate(12.904777, 9.671536) scale(-1, 1) translate(-12.904777, -9.671536) translate(0.904777, 0.171536)">
                    <g id="Group-3-Copy-4" transform="translate(0.637410, 0.936735)" fill-rule="nonzero">
                        <path d="M0.368122905,8.88980136 L0.0752793305,7.93364099 C1.36858818,7.53753883 2.38766903,6.26513881 3.10984123,4.05687833 C3.94245996,1.5108941 5.1176363,0.228264118 6.67940644,0.396260803 L6.5724553,1.39052508 C5.61553556,1.28759102 4.76347371,2.21756214 4.06030593,4.36771086 C3.24669161,6.85558333 2.02352415,8.38280103 0.368122905,8.88980136 Z" id="Path-10-Copy-2"></path>
                        <path d="M0.37964105,17.0708388 L0.0637611857,16.1220396 C1.35454864,15.692303 2.38053001,14.2997966 3.10627239,11.8874779 C3.93608382,9.12924065 5.1049131,7.74251004 6.68400028,7.92715284 L6.56786146,8.92038583 C5.62825876,8.81051801 4.76984985,9.8289575 4.06387476,12.1755711 C3.25383063,14.8681032 2.03756369,16.5188733 0.37964105,17.0708388 Z" id="Path-10-Copy-3" transform="translate(3.373881, 12.490839) scale(1, -1) translate(-3.373881, -12.490839) "></path>
                    </g>
                    <rect id="Rectangle-30-Copy-15" x="7.08588957" y="16.7177189" width="16" height="2" rx="1"></rect>
                    <rect id="Rectangle-30-Copy-16" x="7.08588957" y="0.844247973" width="16" height="2" rx="1"></rect>
                </g>
                <rect id="Rectangle-30-Copy-12" transform="translate(31.815951, 35.000000) scale(-1, 1) translate(-31.815951, -35.000000) " x="23.8159509" y="34" width="16" height="2" rx="1"></rect>
                <rect id="Rectangle-30-Copy-13" transform="translate(31.815951, 9.637256) scale(-1, 1) translate(-31.815951, -9.637256) " x="23.8159509" y="8.63725593" width="16" height="2" rx="1"></rect>
            </g>
            <g id="Group-39" transform="translate(0.000000, 8.000000)">
                <g id="Group-40" transform="translate(38.815951, 1.000000)" fill-rule="nonzero">
                    <path d="M0.332721862,13.1225916 L-0.0719977312,12.2081508 C1.40172171,11.5559018 2.59301823,9.40644581 3.42480852,5.73094063 C4.34346701,1.67158332 5.60974888,-0.325620497 7.40872285,-0.0459786699 L7.25512234,0.942154359 C6.2218279,0.781533721 5.2084791,2.37980669 4.40014465,5.95166543 C3.50494202,9.90737629 2.17482886,12.3072991 0.332721862,13.1225916 Z" id="Path-10-Copy-4" transform="translate(3.668363, 6.525402) scale(-1, 1) translate(-3.668363, -6.525402) "></path>
                    <path d="M0.347132733,26.4161048 L-0.0864086019,25.5149711 C1.38976099,24.8047762 2.58859496,22.4534635 3.42297211,18.445643 C4.3404767,14.0385308 5.59675087,11.8846627 7.41522869,12.1919382 L7.2486165,13.1779607 C6.23482591,13.0066565 5.21146941,14.7611898 4.40198107,18.6494602 C3.50936528,22.9370223 2.18678958,25.5310338 0.347132733,26.4161048 Z" id="Path-10-Copy-5" transform="translate(3.664410, 19.289610) scale(-1, -1) translate(-3.664410, -19.289610) "></path>
                </g>
                <rect id="Rectangle-30-Copy" x="46.1478735" y="12.6388701" width="16" height="2" rx="1"></rect>
                <g id="Group-41" transform="translate(12.904777, 27.671536) scale(-1, 1) translate(-12.904777, -27.671536) translate(0.904777, 18.171536)">
                    <g id="Group-3-Copy-4" transform="translate(0.637410, 0.936735)" fill-rule="nonzero">
                        <path d="M0.294659814,8.37375044 L0.00181623985,7.41759007 C1.29512509,7.02148791 2.31420594,5.74908789 3.03637814,3.54082741 C3.86899687,0.994843176 5.04417321,-0.287786803 6.60594335,-0.119790118 L6.49899221,0.87447416 C5.54207246,0.771540097 4.69001062,1.70151122 3.98684284,3.85165994 C3.17322852,6.33953241 1.95006106,7.86675011 0.294659814,8.37375044 Z" id="Path-10-Copy-2"></path>
                        <path d="M0.306177959,16.5547879 L-0.0097019049,15.6059887 C1.28108555,15.176252 2.30706692,13.7837457 3.0328093,11.371427 C3.86262073,8.61318973 5.03145001,7.22645912 6.61053719,7.41110192 L6.49439837,8.40433491 C5.55479567,8.29446709 4.69638676,9.31290658 3.99041167,11.6595202 C3.18036754,14.3520523 1.9641006,16.0028224 0.306177959,16.5547879 Z" id="Path-10-Copy-3" transform="translate(3.300418, 11.974788) scale(1, -1) translate(-3.300418, -11.974788) "></path>
                    </g>
                    <rect id="Rectangle-30-Copy-15" x="7.01242648" y="16.201668" width="16" height="2" rx="1"></rect>
                    <rect id="Rectangle-30-Copy-16" x="7.01242648" y="0.328197052" width="16" height="2" rx="1"></rect>
                </g>
                <rect id="Rectangle-30-Copy-12" transform="translate(31.815951, 27.000000) scale(-1, 1) translate(-31.815951, -27.000000) " x="23.8159509" y="26" width="16" height="2" rx="1"></rect>
                <rect id="Rectangle-30-Copy-13" transform="translate(31.815951, 1.392993) scale(-1, 1) translate(-31.815951, -1.392993) " x="23.8159509" y="0.392992522" width="16" height="2" rx="1"></rect>
            </g>
        </g>
    </g>
</svg>