<?xml version="1.0" encoding="UTF-8"?>
<svg width="102px" height="49px" viewBox="0 0 102 49" version="1.1" xmlns="http://www.w3.org/2000/svg" xmlns:xlink="http://www.w3.org/1999/xlink">
    <!-- Generator: Sketch 50.2 (55047) - http://www.bohemiancoding.com/sketch -->
    <title>Mindmap3</title>
    <desc>Created with Sketch.</desc>
    <defs></defs>
    <g id="Page-1" stroke="none" stroke-width="1" fill="none" fill-rule="evenodd">
        <g id="Mindmap3" transform="translate(0.000000, -0.696554)" fill-rule="nonzero">
            <g id="Group-46" transform="translate(59.000000, 0.000000)">
                <g id="Group-45" transform="translate(0.000000, 13.000000)" fill="#979797">
                    <polygon id="Path-13" points="5.56105221 0.260573935 6.43894779 0.739426065 0.438947786 11.7394261 -0.438947786 11.2605739"></polygon>
                    <polygon id="Path-13-Copy" transform="translate(3.000000, 16.500000) scale(1, -1) translate(-3.000000, -16.500000) " points="5.56105221 10.7605739 6.43894779 11.2394261 0.438947786 22.2394261 -0.438947786 21.7605739"></polygon>
                </g>
                <g id="Group-45-Copy" transform="translate(20.947350, 4.043695)" fill="#979797">
                    <polygon id="Path-13" points="5.58459947 0.128820031 6.41540053 0.685389533 0.415400527 9.64169473 -0.415400527 9.08512523"></polygon>
                    <polygon id="Path-13-Copy" transform="translate(3.000000, 13.434458) scale(1, -1) translate(-3.000000, -13.434458) " points="5.58459947 8.67802045 6.41540053 9.23458995 0.415400527 18.1908952 -0.415400527 17.6343256"></polygon>
                </g>
                <g id="Group-41" transform="translate(25.947350, 0.322921)" fill="#767676">
                    <path d="M2.08588957,18.2503457 L2.08588957,22.2503457 L14.0858896,22.2503457 L14.0858896,18.2503457 L2.08588957,18.2503457 Z M1.08588957,16.2503457 L15.0858896,16.2503457 C15.6381743,16.2503457 16.0858896,16.698061 16.0858896,17.2503457 L16.0858896,23.2503457 C16.0858896,23.8026305 15.6381743,24.2503457 15.0858896,24.2503457 L1.08588957,24.2503457 C0.533604821,24.2503457 0.0858895706,23.8026305 0.0858895706,23.2503457 L0.0858895706,17.2503457 C0.0858895706,16.698061 0.533604821,16.2503457 1.08588957,16.2503457 Z" id="Rectangle-30-Copy-15"></path>
                    <path d="M2.08588957,2.37687482 L2.08588957,6.37687482 L14.0858896,6.37687482 L14.0858896,2.37687482 L2.08588957,2.37687482 Z M1.08588957,0.376874819 L15.0858896,0.376874819 C15.6381743,0.376874819 16.0858896,0.82459007 16.0858896,1.37687482 L16.0858896,7.37687482 C16.0858896,7.92915957 15.6381743,8.37687482 15.0858896,8.37687482 L1.08588957,8.37687482 C0.533604821,8.37687482 0.0858895706,7.92915957 0.0858895706,7.37687482 L0.0858895706,1.37687482 C0.0858895706,0.82459007 0.533604821,0.376874819 1.08588957,0.376874819 Z" id="Rectangle-30-Copy-16"></path>
                </g>
                <path d="M7.03617556,36.1513849 L19.0361756,36.1513849 L19.0361756,32.1513849 L7.03617556,32.1513849 L7.03617556,36.1513849 Z M6.03617556,30.1513849 L20.0361756,30.1513849 C20.5884603,30.1513849 21.0361756,30.5991001 21.0361756,31.1513849 L21.0361756,37.1513849 C21.0361756,37.7036696 20.5884603,38.1513849 20.0361756,38.1513849 L6.03617556,38.1513849 C5.48389081,38.1513849 5.03617556,37.7036696 5.03617556,37.1513849 L5.03617556,31.1513849 C5.03617556,30.5991001 5.48389081,30.1513849 6.03617556,30.1513849 Z" id="Rectangle-30-Copy-12" fill="#767676"></path>
                <path d="M7.03617556,11.3212676 L7.03617556,15.3212676 L19.0361756,15.3212676 L19.0361756,11.3212676 L7.03617556,11.3212676 Z M6.03617556,9.32126764 L20.0361756,9.32126764 C20.5884603,9.32126764 21.0361756,9.76898289 21.0361756,10.3212676 L21.0361756,16.3212676 C21.0361756,16.8735524 20.5884603,17.3212676 20.0361756,17.3212676 L6.03617556,17.3212676 C5.48389081,17.3212676 5.03617556,16.8735524 5.03617556,16.3212676 L5.03617556,10.3212676 C5.03617556,9.76898289 5.48389081,9.32126764 6.03617556,9.32126764 Z" id="Rectangle-30-Copy-13" fill="#767676"></path>
            </g>
            <g id="Group-46-Copy" transform="translate(21.500000, 30.000000) scale(-1, -1) translate(-21.500000, -30.000000) translate(0.000000, 10.500000)">
                <g id="Group-45" transform="translate(0.000000, 13.000000)" fill="#979797">
                    <polygon id="Path-13" points="5.56105221 0.260573935 6.43894779 0.739426065 0.438947786 11.7394261 -0.438947786 11.2605739"></polygon>
                    <polygon id="Path-13-Copy" transform="translate(3.000000, 16.500000) scale(1, -1) translate(-3.000000, -16.500000) " points="5.56105221 10.7605739 6.43894779 11.2394261 0.438947786 22.2394261 -0.438947786 21.7605739"></polygon>
                </g>
                <g id="Group-45-Copy" transform="translate(20.947350, 4.043695)" fill="#979797">
                    <polygon id="Path-13" points="5.58459947 0.128820031 6.41540053 0.685389533 0.415400527 9.64169473 -0.415400527 9.08512523"></polygon>
                    <polygon id="Path-13-Copy" transform="translate(3.000000, 13.434458) scale(1, -1) translate(-3.000000, -13.434458) " points="5.58459947 8.67802045 6.41540053 9.23458995 0.415400527 18.1908952 -0.415400527 17.6343256"></polygon>
                </g>
                <g id="Group-41" transform="translate(25.947350, 0.322921)" fill="#767676">
                    <path d="M2.08588957,18.2503457 L2.08588957,22.2503457 L14.0858896,22.2503457 L14.0858896,18.2503457 L2.08588957,18.2503457 Z M1.08588957,16.2503457 L15.0858896,16.2503457 C15.6381743,16.2503457 16.0858896,16.698061 16.0858896,17.2503457 L16.0858896,23.2503457 C16.0858896,23.8026305 15.6381743,24.2503457 15.0858896,24.2503457 L1.08588957,24.2503457 C0.533604821,24.2503457 0.0858895706,23.8026305 0.0858895706,23.2503457 L0.0858895706,17.2503457 C0.0858895706,16.698061 0.533604821,16.2503457 1.08588957,16.2503457 Z" id="Rectangle-30-Copy-15"></path>
                    <path d="M2.08588957,2.37687482 L2.08588957,6.37687482 L14.0858896,6.37687482 L14.0858896,2.37687482 L2.08588957,2.37687482 Z M1.08588957,0.376874819 L15.0858896,0.376874819 C15.6381743,0.376874819 16.0858896,0.82459007 16.0858896,1.37687482 L16.0858896,7.37687482 C16.0858896,7.92915957 15.6381743,8.37687482 15.0858896,8.37687482 L1.08588957,8.37687482 C0.533604821,8.37687482 0.0858895706,7.92915957 0.0858895706,7.37687482 L0.0858895706,1.37687482 C0.0858895706,0.82459007 0.533604821,0.376874819 1.08588957,0.376874819 Z" id="Rectangle-30-Copy-16"></path>
                </g>
                <path d="M7.03617556,36.1513849 L19.0361756,36.1513849 L19.0361756,32.1513849 L7.03617556,32.1513849 L7.03617556,36.1513849 Z M6.03617556,30.1513849 L20.0361756,30.1513849 C20.5884603,30.1513849 21.0361756,30.5991001 21.0361756,31.1513849 L21.0361756,37.1513849 C21.0361756,37.7036696 20.5884603,38.1513849 20.0361756,38.1513849 L6.03617556,38.1513849 C5.48389081,38.1513849 5.03617556,37.7036696 5.03617556,37.1513849 L5.03617556,31.1513849 C5.03617556,30.5991001 5.48389081,30.1513849 6.03617556,30.1513849 Z" id="Rectangle-30-Copy-12" fill="#767676"></path>
                <path d="M7.03617556,11.3212676 L7.03617556,15.3212676 L19.0361756,15.3212676 L19.0361756,11.3212676 L7.03617556,11.3212676 Z M6.03617556,9.32126764 L20.0361756,9.32126764 C20.5884603,9.32126764 21.0361756,9.76898289 21.0361756,10.3212676 L21.0361756,16.3212676 C21.0361756,16.8735524 20.5884603,17.3212676 20.0361756,17.3212676 L6.03617556,17.3212676 C5.48389081,17.3212676 5.03617556,16.8735524 5.03617556,16.3212676 L5.03617556,10.3212676 C5.03617556,9.76898289 5.48389081,9.32126764 6.03617556,9.32126764 Z" id="Rectangle-30-Copy-13" fill="#767676"></path>
            </g>
            <path d="M45,26.790255 L57,26.790255 L57,22.790255 L45,22.790255 L45,26.790255 Z M44,20.790255 L58,20.790255 C58.5522847,20.790255 59,21.2379702 59,21.790255 L59,27.790255 C59,28.3425397 58.5522847,28.790255 58,28.790255 L44,28.790255 C43.4477153,28.790255 43,28.3425397 43,27.790255 L43,21.790255 C43,21.2379702 43.4477153,20.790255 44,20.790255 Z" id="Rectangle-30-Copy-11" fill="#767676"></path>
        </g>
    </g>
</svg>