<?xml version="1.0" encoding="UTF-8"?>
<svg width="106px" height="51px" viewBox="0 0 106 51" version="1.1" xmlns="http://www.w3.org/2000/svg" xmlns:xlink="http://www.w3.org/1999/xlink">
    <!-- Generator: Sketch 50.2 (55047) - http://www.bohemiancoding.com/sketch -->
    <title>Mindmap1</title>
    <desc>Created with Sketch.</desc>
    <defs></defs>
    <g id="Page-1" stroke="none" stroke-width="1" fill="none" fill-rule="evenodd">
        <g id="Mindmap1" transform="translate(-1.000000, 0.303446)" fill-rule="nonzero">
            <g id="Group-39-Copy" transform="translate(84.500000, 21.000000) scale(-1, 1) translate(-84.500000, -21.000000) translate(61.000000, 0.000000)">
                <g id="Group-40" transform="translate(38.815951, 12.000000)" fill="#979797">
                    <path d="M0.332721862,13.1225916 L-0.0719977312,12.2081508 C1.40172171,11.5559018 2.59301823,9.40644581 3.42480852,5.73094063 C4.34346701,1.67158332 5.60974888,-0.325620497 7.40872285,-0.0459786699 L7.25512234,0.942154359 C6.2218279,0.781533721 5.2084791,2.37980669 4.40014465,5.95166543 C3.50494202,9.90737629 2.17482886,12.3072991 0.332721862,13.1225916 Z" id="Path-10-Copy-4" transform="translate(3.668363, 6.525402) scale(-1, 1) translate(-3.668363, -6.525402) "></path>
                    <path d="M0.347132733,26.4161048 L-0.0864086019,25.5149711 C1.38976099,24.8047762 2.58859496,22.4534635 3.42297211,18.445643 C4.3404767,14.0385308 5.59675087,11.8846627 7.41522869,12.1919382 L7.2486165,13.1779607 C6.23482591,13.0066565 5.21146941,14.7611898 4.40198107,18.6494602 C3.50936528,22.9370223 2.18678958,25.5310338 0.347132733,26.4161048 Z" id="Path-10-Copy-5" transform="translate(3.664410, 19.289610) scale(-1, -1) translate(-3.664410, -19.289610) "></path>
                </g>
                <g id="Group-41" transform="translate(12.904777, 12.671536) scale(-1, 1) translate(-12.904777, -12.671536) translate(0.904777, 0.171536)">
                    <g id="Group-3-Copy-4" transform="translate(0.637410, 4.936735)" fill="#979797">
                        <path d="M0.368122905,8.4224282 L0.0752793305,7.46626784 C1.36858818,7.07016568 2.38766903,5.79776565 3.10984123,3.58950518 C3.94245996,1.04352094 5.1176363,-0.239109036 6.67940644,-0.0711123506 L6.5724553,0.923151927 C5.61553556,0.820217864 4.76347371,1.75018899 4.06030593,3.9003377 C3.24669161,6.38821018 2.02352415,7.91542788 0.368122905,8.4224282 Z" id="Path-10-Copy-2"></path>
                        <path d="M0.37964105,16.6034656 L0.0637611857,15.6546664 C1.35454864,15.2249298 2.38053001,13.8324235 3.10627239,11.4201047 C3.93608382,8.6618675 5.1049131,7.27513689 6.68400028,7.45977969 L6.56786146,8.45301268 C5.62825876,8.34314485 4.76984985,9.36158435 4.06387476,11.7081979 C3.25383063,14.40073 2.03756369,16.0515002 0.37964105,16.6034656 Z" id="Path-10-Copy-3" transform="translate(3.373881, 12.023466) scale(1, -1) translate(-3.373881, -12.023466) "></path>
                    </g>
                    <path d="M9.08588957,18.2503457 L9.08588957,22.2503457 L21.0858896,22.2503457 L21.0858896,18.2503457 L9.08588957,18.2503457 Z M8.08588957,16.2503457 L22.0858896,16.2503457 C22.6381743,16.2503457 23.0858896,16.698061 23.0858896,17.2503457 L23.0858896,23.2503457 C23.0858896,23.8026305 22.6381743,24.2503457 22.0858896,24.2503457 L8.08588957,24.2503457 C7.53360482,24.2503457 7.08588957,23.8026305 7.08588957,23.2503457 L7.08588957,17.2503457 C7.08588957,16.698061 7.53360482,16.2503457 8.08588957,16.2503457 Z" id="Rectangle-30-Copy-15" fill="#767676"></path>
                    <path d="M9.08588957,2.37687482 L9.08588957,6.37687482 L21.0858896,6.37687482 L21.0858896,2.37687482 L9.08588957,2.37687482 Z M8.08588957,0.376874819 L22.0858896,0.376874819 C22.6381743,0.376874819 23.0858896,0.82459007 23.0858896,1.37687482 L23.0858896,7.37687482 C23.0858896,7.92915957 22.6381743,8.37687482 22.0858896,8.37687482 L8.08588957,8.37687482 C7.53360482,8.37687482 7.08588957,7.92915957 7.08588957,7.37687482 L7.08588957,1.37687482 C7.08588957,0.82459007 7.53360482,0.376874819 8.08588957,0.376874819 Z" id="Rectangle-30-Copy-16" fill="#767676"></path>
                </g>
                <path d="M25.8159509,40 L37.8159509,40 L37.8159509,36 L25.8159509,36 L25.8159509,40 Z M24.8159509,34 L38.8159509,34 C39.3682357,34 39.8159509,34.4477153 39.8159509,35 L39.8159509,41 C39.8159509,41.5522847 39.3682357,42 38.8159509,42 L24.8159509,42 C24.2636662,42 23.8159509,41.5522847 23.8159509,41 L23.8159509,35 C23.8159509,34.4477153 24.2636662,34 24.8159509,34 Z" id="Rectangle-30-Copy-12" fill="#767676" transform="translate(31.815951, 38.000000) scale(-1, 1) translate(-31.815951, -38.000000) "></path>
                <path d="M25.8159509,15.1698828 L37.8159509,15.1698828 L37.8159509,11.1698828 L25.8159509,11.1698828 L25.8159509,15.1698828 Z M24.8159509,9.16988278 L38.8159509,9.16988278 C39.3682357,9.16988278 39.8159509,9.61759803 39.8159509,10.1698828 L39.8159509,16.1698828 C39.8159509,16.7221675 39.3682357,17.1698828 38.8159509,17.1698828 L24.8159509,17.1698828 C24.2636662,17.1698828 23.8159509,16.7221675 23.8159509,16.1698828 L23.8159509,10.1698828 C23.8159509,9.61759803 24.2636662,9.16988278 24.8159509,9.16988278 Z" id="Rectangle-30-Copy-13" fill="#767676" transform="translate(31.815951, 13.169883) scale(-1, 1) translate(-31.815951, -13.169883) "></path>
            </g>
            <g id="Group-39" transform="translate(0.000000, 9.000000)">
                <g id="Group-40" transform="translate(38.815951, 3.000000)" fill="#979797">
                    <path d="M0.332721862,13.1225916 L-0.0719977312,12.2081508 C1.40172171,11.5559018 2.59301823,9.40644581 3.42480852,5.73094063 C4.34346701,1.67158332 5.60974888,-0.325620497 7.40872285,-0.0459786699 L7.25512234,0.942154359 C6.2218279,0.781533721 5.2084791,2.37980669 4.40014465,5.95166543 C3.50494202,9.90737629 2.17482886,12.3072991 0.332721862,13.1225916 Z" id="Path-10-Copy-4" transform="translate(3.668363, 6.525402) scale(-1, 1) translate(-3.668363, -6.525402) "></path>
                    <path d="M0.347132733,26.4161048 L-0.0864086019,25.5149711 C1.38976099,24.8047762 2.58859496,22.4534635 3.42297211,18.445643 C4.3404767,14.0385308 5.59675087,11.8846627 7.41522869,12.1919382 L7.2486165,13.1779607 C6.23482591,13.0066565 5.21146941,14.7611898 4.40198107,18.6494602 C3.50936528,22.9370223 2.18678958,25.5310338 0.347132733,26.4161048 Z" id="Path-10-Copy-5" transform="translate(3.664410, 19.289610) scale(-1, -1) translate(-3.664410, -19.289610) "></path>
                </g>
                <path d="M48.1478735,13.6388701 L48.1478735,17.6388701 L60.1478735,17.6388701 L60.1478735,13.6388701 L48.1478735,13.6388701 Z M47.1478735,11.6388701 L61.1478735,11.6388701 C61.7001583,11.6388701 62.1478735,12.0865854 62.1478735,12.6388701 L62.1478735,18.6388701 C62.1478735,19.1911549 61.7001583,19.6388701 61.1478735,19.6388701 L47.1478735,19.6388701 C46.5955888,19.6388701 46.1478735,19.1911549 46.1478735,18.6388701 L46.1478735,12.6388701 C46.1478735,12.0865854 46.5955888,11.6388701 47.1478735,11.6388701 Z" id="Rectangle-30-Copy" fill="#767676"></path>
                <g id="Group-41" transform="translate(12.904777, 29.171536) scale(-1, 1) translate(-12.904777, -29.171536) translate(0.904777, 17.171536)">
                    <g id="Group-3-Copy-4" transform="translate(0.637410, 4.936735)" fill="#979797">
                        <path d="M0.368122905,8.10881793 L0.0752793305,7.15265757 C1.36858818,6.75655541 2.38766903,5.48415538 3.10984123,3.27589491 C3.94245996,0.729910673 5.1176363,-0.552719306 6.67940644,-0.384722621 L6.5724553,0.609541656 C5.61553556,0.506607594 4.76347371,1.43657872 4.06030593,3.58672743 C3.24669161,6.07459991 2.02352415,7.60181761 0.368122905,8.10881793 Z" id="Path-10-Copy-2"></path>
                        <path d="M0.37964105,16.2898553 L0.0637611857,15.3410562 C1.35454864,14.9113195 2.38053001,13.5188132 3.10627239,11.1064945 C3.93608382,8.34825723 5.1049131,6.96152662 6.68400028,7.14616942 L6.56786146,8.13940241 C5.62825876,8.02953458 4.76984985,9.04797408 4.06387476,11.3945877 C3.25383063,14.0871198 2.03756369,15.7378899 0.37964105,16.2898553 Z" id="Path-10-Copy-3" transform="translate(3.373881, 11.709856) scale(1, -1) translate(-3.373881, -11.709856) "></path>
                    </g>
                    <path d="M9.08588957,17.9367355 L9.08588957,21.9367355 L21.0858896,21.9367355 L21.0858896,17.9367355 L9.08588957,17.9367355 Z M8.08588957,15.9367355 L22.0858896,15.9367355 C22.6381743,15.9367355 23.0858896,16.3844507 23.0858896,16.9367355 L23.0858896,22.9367355 C23.0858896,23.4890202 22.6381743,23.9367355 22.0858896,23.9367355 L8.08588957,23.9367355 C7.53360482,23.9367355 7.08588957,23.4890202 7.08588957,22.9367355 L7.08588957,16.9367355 C7.08588957,16.3844507 7.53360482,15.9367355 8.08588957,15.9367355 Z" id="Rectangle-30-Copy-15" fill="#767676"></path>
                    <path d="M9.08588957,2.06326455 L9.08588957,6.06326455 L21.0858896,6.06326455 L21.0858896,2.06326455 L9.08588957,2.06326455 Z M8.08588957,0.0632645492 L22.0858896,0.0632645492 C22.6381743,0.0632645492 23.0858896,0.510979799 23.0858896,1.06326455 L23.0858896,7.06326455 C23.0858896,7.6155493 22.6381743,8.06326455 22.0858896,8.06326455 L8.08588957,8.06326455 C7.53360482,8.06326455 7.08588957,7.6155493 7.08588957,7.06326455 L7.08588957,1.06326455 C7.08588957,0.510979799 7.53360482,0.0632645492 8.08588957,0.0632645492 Z" id="Rectangle-30-Copy-16" fill="#767676"></path>
                </g>
                <path d="M25.8159509,31 L37.8159509,31 L37.8159509,27 L25.8159509,27 L25.8159509,31 Z M24.8159509,25 L38.8159509,25 C39.3682357,25 39.8159509,25.4477153 39.8159509,26 L39.8159509,32 C39.8159509,32.5522847 39.3682357,33 38.8159509,33 L24.8159509,33 C24.2636662,33 23.8159509,32.5522847 23.8159509,32 L23.8159509,26 C23.8159509,25.4477153 24.2636662,25 24.8159509,25 Z" id="Rectangle-30-Copy-12" fill="#767676" transform="translate(31.815951, 29.000000) scale(-1, 1) translate(-31.815951, -29.000000) "></path>
                <path d="M25.8159509,2.16988278 L25.8159509,6.16988278 L37.8159509,6.16988278 L37.8159509,2.16988278 L25.8159509,2.16988278 Z M24.8159509,0.169882775 L38.8159509,0.169882775 C39.3682357,0.169882775 39.8159509,0.617598025 39.8159509,1.16988278 L39.8159509,7.16988278 C39.8159509,7.72216753 39.3682357,8.16988278 38.8159509,8.16988278 L24.8159509,8.16988278 C24.2636662,8.16988278 23.8159509,7.72216753 23.8159509,7.16988278 L23.8159509,1.16988278 C23.8159509,0.617598025 24.2636662,0.169882775 24.8159509,0.169882775 Z" id="Rectangle-30-Copy-13" fill="#767676" transform="translate(31.815951, 4.169883) scale(-1, 1) translate(-31.815951, -4.169883) "></path>
            </g>
        </g>
    </g>
</svg>