<?xml version="1.0" encoding="UTF-8"?>
<svg width="139px" height="3px" viewBox="0 0 139 3" version="1.1" xmlns="http://www.w3.org/2000/svg" xmlns:xlink="http://www.w3.org/1999/xlink">
    <!-- Generator: Sketch 50.2 (55047) - http://www.bohemiancoding.com/sketch -->
    <title>1,2</title>
    <desc>Created with Sketch.</desc>
    <defs></defs>
    <g id="Page-1" stroke="none" stroke-width="1" fill="none" fill-rule="evenodd">
        <path d="M0.5,2.84651275 L0.5,0.846512754 L2.5,0.846512754 L2.5,2.84651275 L0.5,2.84651275 Z M4.5,2.84651275 L4.5,0.846512754 L6.5,0.846512754 L6.5,2.84651275 L4.5,2.84651275 Z M8.5,2.84651275 L8.5,0.846512754 L10.5,0.846512754 L10.5,2.84651275 L8.5,2.84651275 Z M12.5,2.84651275 L12.5,0.846512754 L14.5,0.846512754 L14.5,2.84651275 L12.5,2.84651275 Z M16.5,2.84651275 L16.5,0.846512754 L18.5,0.846512754 L18.5,2.84651275 L16.5,2.84651275 Z M20.5,2.84651275 L20.5,0.846512754 L22.5,0.846512754 L22.5,2.84651275 L20.5,2.84651275 Z M24.5,2.84651275 L24.5,0.846512754 L26.5,0.846512754 L26.5,2.84651275 L24.5,2.84651275 Z M28.5,2.84651275 L28.5,0.846512754 L30.5,0.846512754 L30.5,2.84651275 L28.5,2.84651275 Z M32.5,2.84651275 L32.5,0.846512754 L34.5,0.846512754 L34.5,2.84651275 L32.5,2.84651275 Z M36.5,2.84651275 L36.5,0.846512754 L38.5,0.846512754 L38.5,2.84651275 L36.5,2.84651275 Z M40.5,2.84651275 L40.5,0.846512754 L42.5,0.846512754 L42.5,2.84651275 L40.5,2.84651275 Z M44.5,2.84651275 L44.5,0.846512754 L46.5,0.846512754 L46.5,2.84651275 L44.5,2.84651275 Z M48.5,2.84651275 L48.5,0.846512754 L50.5,0.846512754 L50.5,2.84651275 L48.5,2.84651275 Z M52.5,2.84651275 L52.5,0.846512754 L54.5,0.846512754 L54.5,2.84651275 L52.5,2.84651275 Z M56.5,2.84651275 L56.5,0.846512754 L58.5,0.846512754 L58.5,2.84651275 L56.5,2.84651275 Z M60.5,2.84651275 L60.5,0.846512754 L62.5,0.846512754 L62.5,2.84651275 L60.5,2.84651275 Z M64.5,2.84651275 L64.5,0.846512754 L66.5,0.846512754 L66.5,2.84651275 L64.5,2.84651275 Z M68.5,2.84651275 L68.5,0.846512754 L70.5,0.846512754 L70.5,2.84651275 L68.5,2.84651275 Z M72.5,2.84651275 L72.5,0.846512754 L74.5,0.846512754 L74.5,2.84651275 L72.5,2.84651275 Z M76.5,2.84651275 L76.5,0.846512754 L78.5,0.846512754 L78.5,2.84651275 L76.5,2.84651275 Z M80.5,2.84651275 L80.5,0.846512754 L82.5,0.846512754 L82.5,2.84651275 L80.5,2.84651275 Z M84.5,2.84651275 L84.5,0.846512754 L86.5,0.846512754 L86.5,2.84651275 L84.5,2.84651275 Z M88.5,2.84651275 L88.5,0.846512754 L90.5,0.846512754 L90.5,2.84651275 L88.5,2.84651275 Z M92.5,2.84651275 L92.5,0.846512754 L94.5,0.846512754 L94.5,2.84651275 L92.5,2.84651275 Z M96.5,2.84651275 L96.5,0.846512754 L98.5,0.846512754 L98.5,2.84651275 L96.5,2.84651275 Z M100.5,2.84651275 L100.5,0.846512754 L102.5,0.846512754 L102.5,2.84651275 L100.5,2.84651275 Z M104.5,2.84651275 L104.5,0.846512754 L106.5,0.846512754 L106.5,2.84651275 L104.5,2.84651275 Z M108.5,2.84651275 L108.5,0.846512754 L110.5,0.846512754 L110.5,2.84651275 L108.5,2.84651275 Z M112.5,2.84651275 L112.5,0.846512754 L114.5,0.846512754 L114.5,2.84651275 L112.5,2.84651275 Z M116.5,2.84651275 L116.5,0.846512754 L118.5,0.846512754 L118.5,2.84651275 L116.5,2.84651275 Z M120.5,2.84651275 L120.5,0.846512754 L122.5,0.846512754 L122.5,2.84651275 L120.5,2.84651275 Z M124.5,2.84651275 L124.5,0.846512754 L126.5,0.846512754 L126.5,2.84651275 L124.5,2.84651275 Z M128.5,2.84651275 L128.5,0.846512754 L130.5,0.846512754 L130.5,2.84651275 L128.5,2.84651275 Z M132.5,2.84651275 L132.5,0.846512754 L134.5,0.846512754 L134.5,2.84651275 L132.5,2.84651275 Z M136.5,2.84651275 L136.5,0.846512754 L138.5,0.846512754 L138.5,2.84651275 L136.5,2.84651275 Z" id="1,2" fill="#979797" fill-rule="nonzero"></path>
    </g>
</svg>