<?xml version="1.0" encoding="UTF-8"?>
<svg width="141px" height="3px" viewBox="0 0 141 3" version="1.1" xmlns="http://www.w3.org/2000/svg" xmlns:xlink="http://www.w3.org/1999/xlink">
    <!-- Generator: Sketch 50.2 (55047) - http://www.bohemiancoding.com/sketch -->
    <title>3,3</title>
    <desc>Created with Sketch.</desc>
    <defs></defs>
    <g id="Page-1" stroke="none" stroke-width="1" fill="none" fill-rule="evenodd">
        <path d="M0.5,2.84651275 L0.5,0.846512754 L4.5,0.846512754 L4.5,2.84651275 L0.5,2.84651275 Z M8.5,2.84651275 L8.5,0.846512754 L12.5,0.846512754 L12.5,2.84651275 L8.5,2.84651275 Z M16.5,2.84651275 L16.5,0.846512754 L20.5,0.846512754 L20.5,2.84651275 L16.5,2.84651275 Z M24.5,2.84651275 L24.5,0.846512754 L28.5,0.846512754 L28.5,2.84651275 L24.5,2.84651275 Z M32.5,2.84651275 L32.5,0.846512754 L36.5,0.846512754 L36.5,2.84651275 L32.5,2.84651275 Z M40.5,2.84651275 L40.5,0.846512754 L44.5,0.846512754 L44.5,2.84651275 L40.5,2.84651275 Z M48.5,2.84651275 L48.5,0.846512754 L52.5,0.846512754 L52.5,2.84651275 L48.5,2.84651275 Z M56.5,2.84651275 L56.5,0.846512754 L60.5,0.846512754 L60.5,2.84651275 L56.5,2.84651275 Z M64.5,2.84651275 L64.5,0.846512754 L68.5,0.846512754 L68.5,2.84651275 L64.5,2.84651275 Z M72.5,2.84651275 L72.5,0.846512754 L76.5,0.846512754 L76.5,2.84651275 L72.5,2.84651275 Z M80.5,2.84651275 L80.5,0.846512754 L84.5,0.846512754 L84.5,2.84651275 L80.5,2.84651275 Z M88.5,2.84651275 L88.5,0.846512754 L92.5,0.846512754 L92.5,2.84651275 L88.5,2.84651275 Z M96.5,2.84651275 L96.5,0.846512754 L100.5,0.846512754 L100.5,2.84651275 L96.5,2.84651275 Z M104.5,2.84651275 L104.5,0.846512754 L108.5,0.846512754 L108.5,2.84651275 L104.5,2.84651275 Z M112.5,2.84651275 L112.5,0.846512754 L116.5,0.846512754 L116.5,2.84651275 L112.5,2.84651275 Z M120.5,2.84651275 L120.5,0.846512754 L124.5,0.846512754 L124.5,2.84651275 L120.5,2.84651275 Z M128.5,2.84651275 L128.5,0.846512754 L132.5,0.846512754 L132.5,2.84651275 L128.5,2.84651275 Z M136.5,2.84651275 L136.5,0.846512754 L140.5,0.846512754 L140.5,2.84651275 L136.5,2.84651275 Z" id="3,3" fill="#979797" fill-rule="nonzero"></path>
    </g>
</svg>