<?xml version="1.0" encoding="UTF-8"?>
<svg width="141px" height="3px" viewBox="0 0 141 3" version="1.1" xmlns="http://www.w3.org/2000/svg" xmlns:xlink="http://www.w3.org/1999/xlink">
    <!-- Generator: Sketch 50.2 (55047) - http://www.bohemiancoding.com/sketch -->
    <title>5,3</title>
    <desc>Created with Sketch.</desc>
    <defs></defs>
    <g id="Page-1" stroke="none" stroke-width="1" fill="none" fill-rule="evenodd">
        <path d="M0.5,2.84651275 L0.5,0.846512754 L10.5,0.846512754 L10.5,2.84651275 L0.5,2.84651275 Z M13.5,2.84651275 L13.5,0.846512754 L23.5,0.846512754 L23.5,2.84651275 L13.5,2.84651275 Z M26.5,2.84651275 L26.5,0.846512754 L36.5,0.846512754 L36.5,2.84651275 L26.5,2.84651275 Z M39.5,2.84651275 L39.5,0.846512754 L49.5,0.846512754 L49.5,2.84651275 L39.5,2.84651275 Z M52.5,2.84651275 L52.5,0.846512754 L62.5,0.846512754 L62.5,2.84651275 L52.5,2.84651275 Z M65.5,2.84651275 L65.5,0.846512754 L75.5,0.846512754 L75.5,2.84651275 L65.5,2.84651275 Z M78.5,2.84651275 L78.5,0.846512754 L88.5,0.846512754 L88.5,2.84651275 L78.5,2.84651275 Z M91.5,2.84651275 L91.5,0.846512754 L101.5,0.846512754 L101.5,2.84651275 L91.5,2.84651275 Z M104.5,2.84651275 L104.5,0.846512754 L114.5,0.846512754 L114.5,2.84651275 L104.5,2.84651275 Z M117.5,2.84651275 L117.5,0.846512754 L127.5,0.846512754 L127.5,2.84651275 L117.5,2.84651275 Z M130.5,2.84651275 L130.5,0.846512754 L140.5,0.846512754 L140.5,2.84651275 L130.5,2.84651275 Z" id="5,3" fill="#979797" fill-rule="nonzero"></path>
    </g>
</svg>