<?xml version="1.0" encoding="UTF-8"?>
<svg width="112px" height="76px" viewBox="0 0 112 76" version="1.1" xmlns="http://www.w3.org/2000/svg" xmlns:xlink="http://www.w3.org/1999/xlink">
    <!-- Generator: Sketch 50.2 (55047) - http://www.bohemiancoding.com/sketch -->
    <title>Org3</title>
    <desc>Created with Sketch.</desc>
    <defs></defs>
    <g id="Page-1" stroke="none" stroke-width="1" fill="none" fill-rule="evenodd">
        <g id="Org3">
            <rect id="Rectangle-3-Copy-58" fill="#FFFFFF" x="0" y="0" width="112" height="76" rx="4"></rect>
            <g id="Group-Copy-3" transform="translate(22.000000, 5.000000)" fill-rule="nonzero">
                <path d="M23.3626064,2 L23.3626064,10 L44.3626064,10 L44.3626064,2 L23.3626064,2 Z M22.3626064,0 L45.3626064,0 C45.9148911,-1.01453063e-16 46.3626064,0.44771525 46.3626064,1 L46.3626064,11 C46.3626064,11.5522847 45.9148911,12 45.3626064,12 L22.3626064,12 C21.8103216,12 21.3626064,11.5522847 21.3626064,11 L21.3626064,1 C21.3626064,0.44771525 21.8103216,1.01453063e-16 22.3626064,0 Z" id="Rectangle-30" fill="#767676"></path>
                <polygon id="Path-9" fill="#4A4A4A" points="8.53167685 42.9104014 8.53167685 41.9104014 13.5 41.9104014 13.5 42.9104014"></polygon>
                <path d="M14.5,55.1228785 L14.5,63.1228785 L35.5,63.1228785 L35.5,55.1228785 L14.5,55.1228785 Z M13.5,53.1228785 L36.5,53.1228785 C37.0522847,53.1228785 37.5,53.5705938 37.5,54.1228785 L37.5,64.1228785 C37.5,64.6751633 37.0522847,65.1228785 36.5,65.1228785 L13.5,65.1228785 C12.9477153,65.1228785 12.5,64.6751633 12.5,64.1228785 L12.5,54.1228785 C12.5,53.5705938 12.9477153,53.1228785 13.5,53.1228785 Z" id="Rectangle-30-Copy-4" fill="#767676" transform="translate(25.000000, 59.122879) scale(-1, 1) translate(-25.000000, -59.122879) "></path>
                <polygon id="Path-6" fill="#4A4A4A" points="13.5590057 20.5518413 12.5590057 20.5518413 12.5590057 15.8040333 55.166207 15.8040333 55.166207 20.6703059 54.166207 20.6703059 54.166207 16.8040333 13.5590057 16.8040333"></polygon>
                <path d="M14.5,38.9224468 L14.5,46.9224468 L35.5,46.9224468 L35.5,38.9224468 L14.5,38.9224468 Z M13.5,36.9224468 L36.5,36.9224468 C37.0522847,36.9224468 37.5,37.370162 37.5,37.9224468 L37.5,47.9224468 C37.5,48.4747315 37.0522847,48.9224468 36.5,48.9224468 L13.5,48.9224468 C12.9477153,48.9224468 12.5,48.4747315 12.5,47.9224468 L12.5,37.9224468 C12.5,37.370162 12.9477153,36.9224468 13.5,36.9224468 Z" id="Rectangle-30-Copy-3" fill="#767676" transform="translate(25.000000, 42.922447) scale(-1, 1) translate(-25.000000, -42.922447) "></path>
                <path d="M2,21.7165569 L2,29.7165569 L23,29.7165569 L23,21.7165569 L2,21.7165569 Z M1,19.7165569 L24,19.7165569 C24.5522847,19.7165569 25,20.1642722 25,20.7165569 L25,30.7165569 C25,31.2688417 24.5522847,31.7165569 24,31.7165569 L1,31.7165569 C0.44771525,31.7165569 6.76353751e-17,31.2688417 0,30.7165569 L0,20.7165569 C-6.76353751e-17,20.1642722 0.44771525,19.7165569 1,19.7165569 Z" id="Rectangle-30-Copy" fill="#767676"></path>
                <polygon id="Path-7" fill="#4A4A4A" points="33.309738 12.0562252 34.309738 12.0562252 34.309738 16.3040333 33.309738 16.3040333"></polygon>
                <polygon id="Path-8" fill="#4A4A4A" points="12.4291724 58.0430734 12.4291724 59.0430734 8.03167685 59.0430734 8.03167685 31.5430734 9.03167685 31.5430734 9.03167685 58.0430734"></polygon>
                <path d="M44.3309295,21.7165569 L44.3309295,29.7165569 L65.3309295,29.7165569 L65.3309295,21.7165569 L44.3309295,21.7165569 Z M43.3309295,19.7165569 L66.3309295,19.7165569 C66.8832143,19.7165569 67.3309295,20.1642722 67.3309295,20.7165569 L67.3309295,30.7165569 C67.3309295,31.2688417 66.8832143,31.7165569 66.3309295,31.7165569 L43.3309295,31.7165569 C42.7786448,31.7165569 42.3309295,31.2688417 42.3309295,30.7165569 L42.3309295,20.7165569 C42.3309295,20.1642722 42.7786448,19.7165569 43.3309295,19.7165569 Z" id="Rectangle-30-Copy-2" fill="#767676"></path>
            </g>
        </g>
    </g>
</svg>