<?xml version="1.0" encoding="UTF-8"?>
<svg width="112px" height="77px" viewBox="0 0 112 77" version="1.1" xmlns="http://www.w3.org/2000/svg" xmlns:xlink="http://www.w3.org/1999/xlink">
    <!-- Generator: Sketch 50.2 (55047) - http://www.bohemiancoding.com/sketch -->
    <title>Org1</title>
    <desc>Created with Sketch.</desc>
    <defs></defs>
    <g id="Page-1" stroke="none" stroke-width="1" fill="none" fill-rule="evenodd">
        <g id="Org1">
            <rect id="Rectangle-3-Copy-60" fill="#FFFFFF" x="0" y="0.385469681" width="112" height="76" rx="4"></rect>
            <path d="M37.3626064,7.30539794 L37.3626064,15.3053979 L58.3626064,15.3053979 L58.3626064,7.30539794 L37.3626064,7.30539794 Z M36.3626064,5.30539794 L59.3626064,5.30539794 C59.9148911,5.30539794 60.3626064,5.75311319 60.3626064,6.30539794 L60.3626064,16.3053979 C60.3626064,16.8576827 59.9148911,17.3053979 59.3626064,17.3053979 L36.3626064,17.3053979 C35.8103216,17.3053979 35.3626064,16.8576827 35.3626064,16.3053979 L35.3626064,6.30539794 C35.3626064,5.75311319 35.8103216,5.30539794 36.3626064,5.30539794 Z" id="Rectangle-30" fill="#767676" fill-rule="nonzero"></path>
            <polygon id="Path-9" fill="#4A4A4A" fill-rule="nonzero" points="68.6303164 48.2157994 68.6303164 47.2157994 73.5986395 47.2157994 73.5986395 48.2157994"></polygon>
            <polygon id="Path-9-Copy" fill="#4A4A4A" fill-rule="nonzero" points="63.8626064 48.2157994 63.8626064 47.2157994 68.8309295 47.2157994 68.8309295 48.2157994"></polygon>
            <polygon id="Path-9-Copy-2" fill="#4A4A4A" fill-rule="nonzero" points="63.8626064 64.3053979 63.8626064 63.3053979 68.8309295 63.3053979 68.8309295 64.3053979"></polygon>
            <path d="M74.6659103,68.4282765 L95.6659103,68.4282765 L95.6659103,60.4282765 L74.6659103,60.4282765 L74.6659103,68.4282765 Z M73.6659103,58.4282765 L96.6659103,58.4282765 C97.2181951,58.4282765 97.6659103,58.8759917 97.6659103,59.4282765 L97.6659103,69.4282765 C97.6659103,69.9805612 97.2181951,70.4282765 96.6659103,70.4282765 L73.6659103,70.4282765 C73.1136256,70.4282765 72.6659103,69.9805612 72.6659103,69.4282765 L72.6659103,59.4282765 C72.6659103,58.8759917 73.1136256,58.4282765 73.6659103,58.4282765 Z" id="Rectangle-30-Copy-4" fill="#767676" fill-rule="nonzero"></path>
            <path d="M41.2584747,68.4282765 L62.2584747,68.4282765 L62.2584747,60.4282765 L41.2584747,60.4282765 L41.2584747,68.4282765 Z M40.2584747,58.4282765 L63.2584747,58.4282765 C63.8107595,58.4282765 64.2584747,58.8759917 64.2584747,59.4282765 L64.2584747,69.4282765 C64.2584747,69.9805612 63.8107595,70.4282765 63.2584747,70.4282765 L40.2584747,70.4282765 C39.70619,70.4282765 39.2584747,69.9805612 39.2584747,69.4282765 L39.2584747,59.4282765 C39.2584747,58.8759917 39.70619,58.4282765 40.2584747,58.4282765 Z" id="Rectangle-30-Copy-7" fill="#767676" fill-rule="nonzero"></path>
            <polygon id="Path-6" fill="#4A4A4A" fill-rule="nonzero" points="27.5590057 25.8572392 26.5590057 25.8572392 26.5590057 21.1094312 69.166207 21.1094312 69.166207 25.9757039 68.166207 25.9757039 68.166207 22.1094312 27.5590057 22.1094312"></polygon>
            <path d="M74.6659103,52.2278447 L95.6659103,52.2278447 L95.6659103,44.2278447 L74.6659103,44.2278447 L74.6659103,52.2278447 Z M73.6659103,42.2278447 L96.6659103,42.2278447 C97.2181951,42.2278447 97.6659103,42.6755599 97.6659103,43.2278447 L97.6659103,53.2278447 C97.6659103,53.7801294 97.2181951,54.2278447 96.6659103,54.2278447 L73.6659103,54.2278447 C73.1136256,54.2278447 72.6659103,53.7801294 72.6659103,53.2278447 L72.6659103,43.2278447 C72.6659103,42.6755599 73.1136256,42.2278447 73.6659103,42.2278447 Z" id="Rectangle-30-Copy-3" fill="#767676" fill-rule="nonzero"></path>
            <path d="M16,27.0219549 L16,35.0219549 L37,35.0219549 L37,27.0219549 L16,27.0219549 Z M15,25.0219549 L38,25.0219549 C38.5522847,25.0219549 39,25.4696701 39,26.0219549 L39,36.0219549 C39,36.5742396 38.5522847,37.0219549 38,37.0219549 L15,37.0219549 C14.4477153,37.0219549 14,36.5742396 14,36.0219549 L14,26.0219549 C14,25.4696701 14.4477153,25.0219549 15,25.0219549 Z" id="Rectangle-30-Copy" fill="#767676" fill-rule="nonzero"></path>
            <path d="M41.2584747,44.2278447 L41.2584747,52.2278447 L62.2584747,52.2278447 L62.2584747,44.2278447 L41.2584747,44.2278447 Z M40.2584747,42.2278447 L63.2584747,42.2278447 C63.8107595,42.2278447 64.2584747,42.6755599 64.2584747,43.2278447 L64.2584747,53.2278447 C64.2584747,53.7801294 63.8107595,54.2278447 63.2584747,54.2278447 L40.2584747,54.2278447 C39.70619,54.2278447 39.2584747,53.7801294 39.2584747,53.2278447 L39.2584747,43.2278447 C39.2584747,42.6755599 39.70619,42.2278447 40.2584747,42.2278447 Z" id="Rectangle-30-Copy-8" fill="#767676" fill-rule="nonzero"></path>
            <polygon id="Path-7" fill="#4A4A4A" fill-rule="nonzero" points="47.309738 17.3616232 48.309738 17.3616232 48.309738 21.6094312 47.309738 21.6094312"></polygon>
            <polygon id="Path-8" fill="#4A4A4A" fill-rule="nonzero" points="72.527812 63.3484713 72.527812 64.3484713 68.1303164 64.3484713 68.1303164 36.8484713 69.1303164 36.8484713 69.1303164 63.3484713"></polygon>
            <path d="M58.3309295,27.0219549 L58.3309295,35.0219549 L79.3309295,35.0219549 L79.3309295,27.0219549 L58.3309295,27.0219549 Z M57.3309295,25.0219549 L80.3309295,25.0219549 C80.8832143,25.0219549 81.3309295,25.4696701 81.3309295,26.0219549 L81.3309295,36.0219549 C81.3309295,36.5742396 80.8832143,37.0219549 80.3309295,37.0219549 L57.3309295,37.0219549 C56.7786448,37.0219549 56.3309295,36.5742396 56.3309295,36.0219549 L56.3309295,26.0219549 C56.3309295,25.4696701 56.7786448,25.0219549 57.3309295,25.0219549 Z" id="Rectangle-30-Copy-2" fill="#767676" fill-rule="nonzero"></path>
        </g>
    </g>
</svg>