<?xml version="1.0" encoding="UTF-8"?>
<svg width="112px" height="77px" viewBox="0 0 112 77" version="1.1" xmlns="http://www.w3.org/2000/svg" xmlns:xlink="http://www.w3.org/1999/xlink">
    <!-- Generator: Sketch 50.2 (55047) - http://www.bohemiancoding.com/sketch -->
    <title>Org2</title>
    <desc>Created with Sketch.</desc>
    <defs></defs>
    <g id="Page-1" stroke="none" stroke-width="1" fill="none" fill-rule="evenodd">
        <g id="Org2" transform="translate(0.000000, -0.500000)">
            <rect id="Rectangle-3-Copy-59" fill="#FFFFFF" x="0" y="0.759784786" width="112" height="76" rx="4"></rect>
            <g id="Group-Copy-2" transform="translate(12.500000, 5.839857)" fill-rule="nonzero">
                <path d="M40.3626064,2 L40.3626064,10 L61.3626064,10 L61.3626064,2 L40.3626064,2 Z M39.3626064,0 L62.3626064,0 C62.9148911,-1.01453063e-16 63.3626064,0.44771525 63.3626064,1 L63.3626064,11 C63.3626064,11.5522847 62.9148911,12 62.3626064,12 L39.3626064,12 C38.8103216,12 38.3626064,11.5522847 38.3626064,11 L38.3626064,1 C38.3626064,0.44771525 38.8103216,1.01453063e-16 39.3626064,0 Z" id="Rectangle-30" fill="#767676"></path>
                <polygon id="Path-9" fill="#4A4A4A" transform="translate(27.015838, 42.410401) scale(-1, 1) translate(-27.015838, -42.410401) " points="24.5316768 42.9104014 24.5316768 41.9104014 29.5 41.9104014 29.5 42.9104014"></polygon>
                <path d="M2.53167685,55.1228785 L2.53167685,63.1228785 L23.5316768,63.1228785 L23.5316768,55.1228785 L2.53167685,55.1228785 Z M1.53167685,53.1228785 L24.5316768,53.1228785 C25.0839616,53.1228785 25.5316768,53.5705938 25.5316768,54.1228785 L25.5316768,64.1228785 C25.5316768,64.6751633 25.0839616,65.1228785 24.5316768,65.1228785 L1.53167685,65.1228785 C0.979392098,65.1228785 0.531676848,64.6751633 0.531676848,64.1228785 L0.531676848,54.1228785 C0.531676848,53.5705938 0.979392098,53.1228785 1.53167685,53.1228785 Z" id="Rectangle-30-Copy-4" fill="#767676" transform="translate(13.031677, 59.122879) scale(-1, 1) translate(-13.031677, -59.122879) "></path>
                <polygon id="Path-6" fill="#4A4A4A" points="30.5590057 20.5518413 29.5590057 20.5518413 29.5590057 15.8040333 72.166207 15.8040333 72.166207 20.6703059 71.166207 20.6703059 71.166207 16.8040333 30.5590057 16.8040333"></polygon>
                <path d="M2.53167685,38.9224468 L2.53167685,46.9224468 L23.5316768,46.9224468 L23.5316768,38.9224468 L2.53167685,38.9224468 Z M1.53167685,36.9224468 L24.5316768,36.9224468 C25.0839616,36.9224468 25.5316768,37.370162 25.5316768,37.9224468 L25.5316768,47.9224468 C25.5316768,48.4747315 25.0839616,48.9224468 24.5316768,48.9224468 L1.53167685,48.9224468 C0.979392098,48.9224468 0.531676848,48.4747315 0.531676848,47.9224468 L0.531676848,37.9224468 C0.531676848,37.370162 0.979392098,36.9224468 1.53167685,36.9224468 Z" id="Rectangle-30-Copy-3" fill="#767676" transform="translate(13.031677, 42.922447) scale(-1, 1) translate(-13.031677, -42.922447) "></path>
                <path d="M19,21.7165569 L19,29.7165569 L40,29.7165569 L40,21.7165569 L19,21.7165569 Z M18,19.7165569 L41,19.7165569 C41.5522847,19.7165569 42,20.1642722 42,20.7165569 L42,30.7165569 C42,31.2688417 41.5522847,31.7165569 41,31.7165569 L18,31.7165569 C17.4477153,31.7165569 17,31.2688417 17,30.7165569 L17,20.7165569 C17,20.1642722 17.4477153,19.7165569 18,19.7165569 Z" id="Rectangle-30-Copy" fill="#767676"></path>
                <polygon id="Path-7" fill="#4A4A4A" points="50.309738 12.0562252 51.309738 12.0562252 51.309738 16.3040333 50.309738 16.3040333"></polygon>
                <polygon id="Path-8" fill="#4A4A4A" transform="translate(27.230425, 45.293073) scale(-1, 1) translate(-27.230425, -45.293073) " points="29.4291724 58.0430734 29.4291724 59.0430734 25.0316768 59.0430734 25.0316768 31.5430734 26.0316768 31.5430734 26.0316768 58.0430734"></polygon>
                <path d="M61.3309295,21.7165569 L61.3309295,29.7165569 L82.3309295,29.7165569 L82.3309295,21.7165569 L61.3309295,21.7165569 Z M60.3309295,19.7165569 L83.3309295,19.7165569 C83.8832143,19.7165569 84.3309295,20.1642722 84.3309295,20.7165569 L84.3309295,30.7165569 C84.3309295,31.2688417 83.8832143,31.7165569 83.3309295,31.7165569 L60.3309295,31.7165569 C59.7786448,31.7165569 59.3309295,31.2688417 59.3309295,30.7165569 L59.3309295,20.7165569 C59.3309295,20.1642722 59.7786448,19.7165569 60.3309295,19.7165569 Z" id="Rectangle-30-Copy-2" fill="#767676"></path>
            </g>
        </g>
    </g>
</svg>