<?xml version="1.0" encoding="UTF-8"?>
<svg width="112px" height="76px" viewBox="0 0 112 76" version="1.1" xmlns="http://www.w3.org/2000/svg" xmlns:xlink="http://www.w3.org/1999/xlink">
    <!-- Generator: Sketch 50.2 (55047) - http://www.bohemiancoding.com/sketch -->
    <title>Org5</title>
    <desc>Created with Sketch.</desc>
    <defs></defs>
    <g id="Page-1" stroke="none" stroke-width="1" fill="none" fill-rule="evenodd">
        <g id="Org5">
            <rect id="Rectangle-3-Copy-56" fill="#FFFFFF" x="0" y="0" width="112" height="76" rx="4"></rect>
            <g id="Group-Copy-8" transform="translate(1.352671, 12.000000)" fill-rule="nonzero">
                <path d="M20.6498945,2 L20.6498945,10 L38.4752913,10 L38.4752913,2 L20.6498945,2 Z M19.6498945,0 L39.4752913,0 C40.027576,-2.06356265e-15 40.4752913,0.44771525 40.4752913,1 L40.4752913,11 C40.4752913,11.5522847 40.027576,12 39.4752913,12 L19.6498945,12 C19.0976097,12 18.6498945,11.5522847 18.6498945,11 L18.6498945,1 C18.6498945,0.44771525 19.0976097,1.01453063e-16 19.6498945,0 Z" id="Rectangle-30" fill="#767676"></path>
                <path d="M38.811768,49.9224468 L56.6371649,49.9224468 L56.6371649,41.9224468 L38.811768,41.9224468 L38.811768,49.9224468 Z M37.811768,39.9224468 L57.6371649,39.9224468 C58.1894496,39.9224468 58.6371649,40.370162 58.6371649,40.9224468 L58.6371649,50.9224468 C58.6371649,51.4747315 58.1894496,51.9224468 57.6371649,51.9224468 L37.811768,51.9224468 C37.2594833,51.9224468 36.811768,51.4747315 36.811768,50.9224468 L36.811768,40.9224468 C36.811768,40.370162 37.2594833,39.9224468 37.811768,39.9224468 Z" id="Rectangle-30-Copy-4" fill="#767676" transform="translate(47.724466, 45.922447) scale(-1, 1) translate(-47.724466, -45.922447) "></path>
                <path d="M64.8571429,49.9224468 L82.6825397,49.9224468 L82.6825397,41.9224468 L64.8571429,41.9224468 L64.8571429,49.9224468 Z M63.8571429,39.9224468 L83.6825397,39.9224468 C84.2348244,39.9224468 84.6825397,40.370162 84.6825397,40.9224468 L84.6825397,50.9224468 C84.6825397,51.4747315 84.2348244,51.9224468 83.6825397,51.9224468 L63.8571429,51.9224468 C63.3048581,51.9224468 62.8571429,51.4747315 62.8571429,50.9224468 L62.8571429,40.9224468 C62.8571429,40.370162 63.3048581,39.9224468 63.8571429,39.9224468 Z" id="Rectangle-30-Copy-5" fill="#767676" transform="translate(73.769841, 45.922447) scale(-1, 1) translate(-73.769841, -45.922447) "></path>
                <polygon id="Path-6" fill="#4A4A4A" points="11.9007193 16.8040333 11.9007193 20.5518413 10.9007193 20.5518413 10.9007193 15.8040333 48.2244664 15.8040333 48.2244664 20.6703059 47.2244664 20.6703059 47.2244664 16.8040333"></polygon>
                <polygon id="Path-6-Copy" fill="#4A4A4A" points="48.3682718 39.9643649 47.3682718 39.9643649 47.3682718 35.2165569 101.551452 35.2165569 101.551452 40.0828296 100.551452 40.0828296 100.551452 36.2165569 48.3682718 36.2165569"></polygon>
                <path d="M90.1746032,49.9224468 L108,49.9224468 L108,41.9224468 L90.1746032,41.9224468 L90.1746032,49.9224468 Z M89.1746032,39.9224468 L109,39.9224468 C109.552285,39.9224468 110,40.370162 110,40.9224468 L110,50.9224468 C110,51.4747315 109.552285,51.9224468 109,51.9224468 L89.1746032,51.9224468 C88.6223184,51.9224468 88.1746032,51.4747315 88.1746032,50.9224468 L88.1746032,40.9224468 C88.1746032,40.370162 88.6223184,39.9224468 89.1746032,39.9224468 Z" id="Rectangle-30-Copy-3" fill="#767676" transform="translate(99.087302, 45.922447) scale(-1, 1) translate(-99.087302, -45.922447) "></path>
                <path d="M2,29.7165569 L19.8253968,29.7165569 L19.8253968,21.7165569 L2,21.7165569 L2,29.7165569 Z M1,19.7165569 L20.8253968,19.7165569 C21.3776816,19.7165569 21.8253968,20.1642722 21.8253968,20.7165569 L21.8253968,30.7165569 C21.8253968,31.2688417 21.3776816,31.7165569 20.8253968,31.7165569 L1,31.7165569 C0.44771525,31.7165569 6.76353751e-17,31.2688417 0,30.7165569 L0,20.7165569 C-6.76353751e-17,20.1642722 0.44771525,19.7165569 1,19.7165569 Z" id="Rectangle-30-Copy" fill="#767676"></path>
                <polygon id="Path-7" fill="#4A4A4A" points="29.016438 12.0562252 30.016438 12.0562252 30.016438 16.3040333 29.016438 16.3040333"></polygon>
                <polygon id="Path-7-Copy" fill="#4A4A4A" points="47.3682718 31.7165569 48.3682718 31.7165569 48.3682718 35.9643649 47.3682718 35.9643649"></polygon>
                <polygon id="Path-7-Copy-3" fill="#4A4A4A" points="73.2698413 35.6746387 74.2698413 35.6746387 74.2698413 39.9224468 73.2698413 39.9224468"></polygon>
                <polygon id="Path-7-Copy-2" fill="#4A4A4A" points="47.3682718 35.9643649 48.3682718 35.9643649 48.3682718 40.212173 47.3682718 40.212173"></polygon>
                <path d="M38.9555734,29.7165569 L56.7809702,29.7165569 L56.7809702,21.7165569 L38.9555734,21.7165569 L38.9555734,29.7165569 Z M37.9555734,19.7165569 L57.7809702,19.7165569 C58.333255,19.7165569 58.7809702,20.1642722 58.7809702,20.7165569 L58.7809702,30.7165569 C58.7809702,31.2688417 58.333255,31.7165569 57.7809702,31.7165569 L37.9555734,31.7165569 C37.4032886,31.7165569 36.9555734,31.2688417 36.9555734,30.7165569 L36.9555734,20.7165569 C36.9555734,20.1642722 37.4032886,19.7165569 37.9555734,19.7165569 Z" id="Rectangle-30-Copy-2" fill="#767676"></path>
            </g>
        </g>
    </g>
</svg>