<?xml version="1.0" encoding="UTF-8"?>
<svg width="135px" height="135px" viewBox="0 0 135 135" version="1.1" xmlns="http://www.w3.org/2000/svg" xmlns:xlink="http://www.w3.org/1999/xlink">
    <!-- Generator: Sketch 50.2 (55047) - http://www.bohemiancoding.com/sketch -->
    <title>OrgRenderingStyle_2</title>
    <desc>Created with Sketch.</desc>
    <defs></defs>
    <g id="OrgRenderingStyle_2" stroke="none" stroke-width="1" fill="none" fill-rule="evenodd">
        <g id="Group" transform="translate(1.000000, 27.709016)">
            <g id="Group-Copy" transform="translate(0.515273, 0.545082)" stroke="#88FEE1" stroke-width="2">
                <rect id="Rectangle-3-Copy-7" fill="#B6FFF2" x="48.2061749" y="1.19472199" width="35.6091623" height="14.6607054" rx="2"></rect>
                <rect id="Rectangle-3-Copy-10" fill="#B6FFF2" x="48.2061749" y="31.7393486" width="35.6091623" height="14.6607054" rx="2"></rect>
                <rect id="Rectangle-3-Copy-11" fill="#B6FFF2" x="48.2061749" y="62.2839751" width="35.6091623" height="14.6607054" rx="2"></rect>
                <rect id="Rectangle-3-Copy-12" fill="#B6FFF2" x="1.19472199" y="62.2839751" width="35.6091623" height="14.6607054" rx="2"></rect>
                <rect id="Rectangle-3-Copy-13" fill="#B6FFF2" x="95.2176278" y="62.2839751" width="35.6091623" height="14.6607054" rx="2"></rect>
                <path d="M66.0107561,16.4977537 L66.0107561,31.3400403" id="Path-11"></path>
                <path d="M66.0107561,47.400054 C66.0107561,56.2194172 66.0107561,61.0109066 66.0107561,61.7745223" id="Path-11-Copy"></path>
                <polyline id="Path-12" points="17.8683961 61.4537278 17.8683961 54.1178856 114.656592 54.1178856 114.656592 61.6435047"></polyline>
            </g>
            <rect id="Rectangle-5-Copy-5" fill="#444444" x="56.1136335" y="5.45081967" width="21.8032787" height="2.18032787"></rect>
            <rect id="Rectangle-5-Copy-6" fill="#444444" x="56.1136335" y="36.5204918" width="21.8032787" height="2.18032787"></rect>
            <rect id="Rectangle-5-Copy-7" fill="#444444" x="56.1136335" y="66.7262013" width="21.8032787" height="2.18032787"></rect>
            <rect id="Rectangle-5-Copy-8" fill="#444444" x="9.40317812" y="66.7262013" width="21.8032787" height="2.18032787"></rect>
            <rect id="Rectangle-5-Copy-9" fill="#444444" x="102.854473" y="66.7262013" width="21.8032787" height="2.18032787"></rect>
            <rect id="Rectangle-5-Copy-14" fill="#B7B7B7" x="56.1136335" y="9.81147541" width="21.8032787" height="2.18032787"></rect>
            <rect id="Rectangle-5-Copy-13" fill="#B7B7B7" x="56.1136335" y="40.8811475" width="21.8032787" height="2.18032787"></rect>
            <rect id="Rectangle-5-Copy-12" fill="#B7B7B7" x="56.1136335" y="71.086857" width="21.8032787" height="2.18032787"></rect>
            <rect id="Rectangle-5-Copy-11" fill="#B7B7B7" x="9.40317812" y="71.086857" width="21.8032787" height="2.18032787"></rect>
            <rect id="Rectangle-5-Copy-10" fill="#B7B7B7" x="102.854473" y="71.086857" width="21.8032787" height="2.18032787"></rect>
        </g>
    </g>
</svg>