<?xml version="1.0" encoding="UTF-8"?>
<svg width="135px" height="135px" viewBox="0 0 135 135" version="1.1" xmlns="http://www.w3.org/2000/svg" xmlns:xlink="http://www.w3.org/1999/xlink">
    <!-- Generator: Sketch 50.2 (55047) - http://www.bohemiancoding.com/sketch -->
    <title>OrgRenderingStyle_3</title>
    <desc>Created with Sketch.</desc>
    <defs></defs>
    <g id="OrgRenderingStyle_3" stroke="none" stroke-width="1" fill="none" fill-rule="evenodd">
        <g id="Group-2" transform="translate(1.000000, 28.032520)">
            <g id="Group" transform="translate(0.540650, 0.000000)">
                <g id="Group-Copy" transform="translate(0.511084, 0.540650)" stroke="#FFB3A6" stroke-width="2">
                    <rect id="Rectangle-3-Copy-7" fill="#FFD7D0" x="47.8223849" y="1.19313889" width="35.3033968" height="14.5252525" rx="2"></rect>
                    <rect id="Rectangle-3-Copy-10" fill="#FFD7D0" x="47.8223849" y="31.4894352" width="35.3033968" height="14.5252525" rx="2"></rect>
                    <rect id="Rectangle-3-Copy-11" fill="#FFD7D0" x="47.8223849" y="61.7857314" width="35.3033968" height="14.5252525" rx="2"></rect>
                    <rect id="Rectangle-3-Copy-12" fill="#FFD7D0" x="1.19313889" y="61.7857314" width="35.3033968" height="14.5252525" rx="2"></rect>
                    <rect id="Rectangle-3-Copy-13" fill="#FFD7D0" x="94.4516309" y="61.7857314" width="35.3033968" height="14.5252525" rx="2"></rect>
                    <path d="M65.4740833,16.3636256 L65.4740833,31.0852433" id="Path-11"></path>
                    <path d="M65.4740833,47.0146877 C65.4740833,55.7623487 65.4740833,60.514883 65.4740833,61.2722904" id="Path-11-Copy"></path>
                    <polyline id="Path-12" points="17.7231246 60.954104 17.7231246 53.6779027 113.724424 53.6779027 113.724424 61.142338"></polyline>
                </g>
                <rect id="Rectangle-5-Copy-5" fill="#444444" x="64.0354539" y="5.40650407" width="15.1382114" height="2.16260163"></rect>
                <rect id="Rectangle-5-Copy-6" fill="#444444" x="64.0354539" y="36.2235772" width="15.1382114" height="2.16260163"></rect>
                <rect id="Rectangle-5-Copy-7" fill="#444444" x="64.0354539" y="66.1837118" width="15.1382114" height="2.16260163"></rect>
                <rect id="Rectangle-5-Copy-8" fill="#444444" x="16.8088987" y="66.1837118" width="15.1382114" height="2.16260163"></rect>
                <rect id="Rectangle-5-Copy-9" fill="#444444" x="110.396286" y="66.1837118" width="15.1382114" height="2.16260163"></rect>
                <rect id="Rectangle-5-Copy-14" fill="#B7B7B7" x="64.0354539" y="9.73170732" width="10.8130081" height="2.16260163"></rect>
                <rect id="Rectangle-5-Copy-13" fill="#B7B7B7" x="64.0354539" y="40.5487805" width="10.8130081" height="2.16260163"></rect>
                <rect id="Rectangle-5-Copy-12" fill="#B7B7B7" x="64.0354539" y="70.5089151" width="10.8130081" height="2.16260163"></rect>
                <rect id="Rectangle-5-Copy-11" fill="#B7B7B7" x="16.8088987" y="70.5089151" width="10.8130081" height="2.16260163"></rect>
                <rect id="Rectangle-5-Copy-10" fill="#B7B7B7" x="110.396286" y="70.5089151" width="10.8130081" height="2.16260163"></rect>
            </g>
            <path d="M56.0961812,3.01863383 C57.7396653,3.01863383 59.1417127,3.6003137 60.3023654,4.76369089 C61.463018,5.92706809 62.0433356,7.32775322 62.0433356,8.9657883 C62.0433356,10.6038234 61.463018,12.0045085 60.3023654,13.1678857 C59.1417127,14.3312629 57.7396653,14.9129428 56.0961812,14.9129428 C54.452697,14.9129428 53.0506496,14.3312629 51.889997,13.1678857 C50.7293443,12.0045085 50.1490267,10.6038234 50.1490267,8.9657883 C50.1490267,7.32775322 50.7293443,5.92706809 51.889997,4.76369089 C53.0506496,3.6003137 54.452697,3.01863383 56.0961812,3.01863383 Z M56.0961812,4.80557226 C55.6040644,4.80557226 55.1815932,4.97774951 54.8287548,5.32210915 C54.4759164,5.6664688 54.2994998,6.08527831 54.2994998,6.57855024 C54.2994998,7.07182217 54.4759164,7.49528512 54.8287548,7.84895178 C55.1815932,8.20261845 55.6040644,8.37944913 56.0961812,8.37944913 C56.5882979,8.37944913 57.0061266,8.20261845 57.3496798,7.84895178 C57.693233,7.49528512 57.865007,7.07182217 57.865007,6.57855024 C57.865007,6.08527831 57.693233,5.6664688 57.3496798,5.32210915 C57.0061266,4.97774951 56.5882979,4.80557226 56.0961812,4.80557226 Z M56.0961812,13.2656089 C56.8297136,13.2656089 57.5075246,13.0934317 58.1296345,12.749072 C58.7517443,12.4047124 59.2577812,11.934715 59.6477605,11.3390659 C59.6477605,10.9667852 59.4295611,10.636391 58.9931557,10.3478735 C58.5567503,10.059356 58.0739261,9.84529776 57.5446684,9.7056925 C57.0154108,9.56608723 56.5325866,9.49628565 56.0961812,9.49628565 C55.6597758,9.49628565 55.1769515,9.56608723 54.6476939,9.7056925 C54.1184363,9.84529776 53.635612,10.059356 53.1992066,10.3478735 C52.7628012,10.636391 52.5353167,10.9667852 52.5167463,11.3390659 C52.9067256,11.934715 53.4174051,12.4047124 54.0488001,12.749072 C54.6801952,13.0934317 55.3626487,13.2656089 56.0961812,13.2656089 Z" id="" fill="#444444"></path>
            <path d="M56.0961812,33.5203252 C57.7396653,33.5203252 59.1417127,34.1020051 60.3023654,35.2653823 C61.463018,36.4287595 62.0433356,37.8294446 62.0433356,39.4674797 C62.0433356,41.1055148 61.463018,42.5061999 60.3023654,43.6695771 C59.1417127,44.8329543 57.7396653,45.4146341 56.0961812,45.4146341 C54.452697,45.4146341 53.0506496,44.8329543 51.889997,43.6695771 C50.7293443,42.5061999 50.1490267,41.1055148 50.1490267,39.4674797 C50.1490267,37.8294446 50.7293443,36.4287595 51.889997,35.2653823 C53.0506496,34.1020051 54.452697,33.5203252 56.0961812,33.5203252 Z M56.0961812,35.3072636 C55.6040644,35.3072636 55.1815932,35.4794409 54.8287548,35.8238005 C54.4759164,36.1681602 54.2994998,36.5869697 54.2994998,37.0802416 C54.2994998,37.5735135 54.4759164,37.9969765 54.8287548,38.3506432 C55.1815932,38.7043098 55.6040644,38.8811405 56.0961812,38.8811405 C56.5882979,38.8811405 57.0061266,38.7043098 57.3496798,38.3506432 C57.693233,37.9969765 57.865007,37.5735135 57.865007,37.0802416 C57.865007,36.5869697 57.693233,36.1681602 57.3496798,35.8238005 C57.0061266,35.4794409 56.5882979,35.3072636 56.0961812,35.3072636 Z M56.0961812,43.7673003 C56.8297136,43.7673003 57.5075246,43.595123 58.1296345,43.2507634 C58.7517443,42.9064037 59.2577812,42.4364064 59.6477605,41.8407573 C59.6477605,41.4684766 59.4295611,41.1380824 58.9931557,40.8495649 C58.5567503,40.5610473 58.0739261,40.3469891 57.5446684,40.2073839 C57.0154108,40.0677786 56.5325866,39.997977 56.0961812,39.997977 C55.6597758,39.997977 55.1769515,40.0677786 54.6476939,40.2073839 C54.1184363,40.3469891 53.635612,40.5610473 53.1992066,40.8495649 C52.7628012,41.1380824 52.5353167,41.4684766 52.5167463,41.8407573 C52.9067256,42.4364064 53.4174051,42.9064037 54.0488001,43.2507634 C54.6801952,43.595123 55.3626487,43.7673003 56.0961812,43.7673003 Z" id="-copy" fill="#444444"></path>
            <path d="M56.0961812,63.796748 C57.7396653,63.796748 59.1417127,64.3784278 60.3023654,65.541805 C61.463018,66.7051822 62.0433356,68.1058674 62.0433356,69.7439024 C62.0433356,71.3819375 61.463018,72.7826227 60.3023654,73.9459998 C59.1417127,75.109377 57.7396653,75.6910569 56.0961812,75.6910569 C54.452697,75.6910569 53.0506496,75.109377 51.889997,73.9459998 C50.7293443,72.7826227 50.1490267,71.3819375 50.1490267,69.7439024 C50.1490267,68.1058674 50.7293443,66.7051822 51.889997,65.541805 C53.0506496,64.3784278 54.452697,63.796748 56.0961812,63.796748 Z M56.0961812,65.5836864 C55.6040644,65.5836864 55.1815932,65.7558636 54.8287548,66.1002233 C54.4759164,66.4445829 54.2994998,66.8633924 54.2994998,67.3566644 C54.2994998,67.8499363 54.4759164,68.2733993 54.8287548,68.6270659 C55.1815932,68.9807326 55.6040644,69.1575633 56.0961812,69.1575633 C56.5882979,69.1575633 57.0061266,68.9807326 57.3496798,68.6270659 C57.693233,68.2733993 57.865007,67.8499363 57.865007,67.3566644 C57.865007,66.8633924 57.693233,66.4445829 57.3496798,66.1002233 C57.0061266,65.7558636 56.5882979,65.5836864 56.0961812,65.5836864 Z M56.0961812,74.043723 C56.8297136,74.043723 57.5075246,73.8715458 58.1296345,73.5271862 C58.7517443,73.1828265 59.2577812,72.7128292 59.6477605,72.11718 C59.6477605,71.7448993 59.4295611,71.4145052 58.9931557,71.1259876 C58.5567503,70.8374701 58.0739261,70.6234119 57.5446684,70.4838066 C57.0154108,70.3442014 56.5325866,70.2743998 56.0961812,70.2743998 C55.6597758,70.2743998 55.1769515,70.3442014 54.6476939,70.4838066 C54.1184363,70.6234119 53.635612,70.8374701 53.1992066,71.1259876 C52.7628012,71.4145052 52.5353167,71.7448993 52.5167463,72.11718 C52.9067256,72.7128292 53.4174051,73.1828265 54.0488001,73.5271862 C54.6801952,73.8715458 55.3626487,74.043723 56.0961812,74.043723 Z" id="-copy-3" fill="#444444"></path>
            <path d="M102.182927,63.796748 C103.826411,63.796748 105.228458,64.3784278 106.389111,65.541805 C107.549764,66.7051822 108.130081,68.1058674 108.130081,69.7439024 C108.130081,71.3819375 107.549764,72.7826227 106.389111,73.9459998 C105.228458,75.109377 103.826411,75.6910569 102.182927,75.6910569 C100.539443,75.6910569 99.1373953,75.109377 97.9767426,73.9459998 C96.81609,72.7826227 96.2357724,71.3819375 96.2357724,69.7439024 C96.2357724,68.1058674 96.81609,66.7051822 97.9767426,65.541805 C99.1373953,64.3784278 100.539443,63.796748 102.182927,63.796748 Z M102.182927,65.5836864 C101.69081,65.5836864 101.268339,65.7558636 100.9155,66.1002233 C100.562662,66.4445829 100.386246,66.8633924 100.386246,67.3566644 C100.386246,67.8499363 100.562662,68.2733993 100.9155,68.6270659 C101.268339,68.9807326 101.69081,69.1575633 102.182927,69.1575633 C102.675044,69.1575633 103.092872,68.9807326 103.436425,68.6270659 C103.779979,68.2733993 103.951753,67.8499363 103.951753,67.3566644 C103.951753,66.8633924 103.779979,66.4445829 103.436425,66.1002233 C103.092872,65.7558636 102.675044,65.5836864 102.182927,65.5836864 Z M102.182927,74.043723 C102.916459,74.043723 103.59427,73.8715458 104.21638,73.5271862 C104.83849,73.1828265 105.344527,72.7128292 105.734506,72.11718 C105.734506,71.7448993 105.516307,71.4145052 105.079901,71.1259876 C104.643496,70.8374701 104.160672,70.6234119 103.631414,70.4838066 C103.102156,70.3442014 102.619332,70.2743998 102.182927,70.2743998 C101.746521,70.2743998 101.263697,70.3442014 100.73444,70.4838066 C100.205182,70.6234119 99.7223577,70.8374701 99.2859523,71.1259876 C98.8495469,71.4145052 98.6220624,71.7448993 98.6034919,72.11718 C98.9934712,72.7128292 99.5041507,73.1828265 100.135546,73.5271862 C100.766941,73.8715458 101.449394,74.043723 102.182927,74.043723 Z" id="-copy-4" fill="#444444"></path>
            <path d="M9.16122223,63.4752535 C10.8047064,63.4752535 12.2067538,64.0569334 13.3674064,65.2203106 C14.5280591,66.3836878 15.1083767,67.7843729 15.1083767,69.422408 C15.1083767,71.0604431 14.5280591,72.4611282 13.3674064,73.6245054 C12.2067538,74.7878826 10.8047064,75.3695625 9.16122223,75.3695625 C7.51773807,75.3695625 6.1156907,74.7878826 4.95503804,73.6245054 C3.79438539,72.4611282 3.21406776,71.0604431 3.21406776,69.422408 C3.21406776,67.7843729 3.79438539,66.3836878 4.95503804,65.2203106 C6.1156907,64.0569334 7.51773807,63.4752535 9.16122223,63.4752535 Z M9.16122223,65.262192 C8.66910551,65.262192 8.24663428,65.4343692 7.89379587,65.7787289 C7.54095746,66.1230885 7.36454091,66.541898 7.36454091,67.03517 C7.36454091,67.5284419 7.54095746,67.9519048 7.89379587,68.3055715 C8.24663428,68.6592382 8.66910551,68.8360688 9.16122223,68.8360688 C9.65333896,68.8360688 10.0711676,68.6592382 10.4147208,68.3055715 C10.758274,67.9519048 10.930048,67.5284419 10.930048,67.03517 C10.930048,66.541898 10.758274,66.1230885 10.4147208,65.7787289 C10.0711676,65.4343692 9.65333896,65.262192 9.16122223,65.262192 Z M9.16122223,73.7222286 C9.89475471,73.7222286 10.5725657,73.5500514 11.1946755,73.2056917 C11.8167853,72.8613321 12.3228223,72.3913347 12.7128016,71.7956856 C12.7128016,71.4234049 12.4946022,71.0930108 12.0581968,70.8044932 C11.6217914,70.5159757 11.1389671,70.3019175 10.6097095,70.1623122 C10.0804519,70.022707 9.59762763,69.9529054 9.16122223,69.9529054 C8.72481684,69.9529054 8.24199257,70.022707 7.71273496,70.1623122 C7.18347735,70.3019175 6.70065309,70.5159757 6.26424769,70.8044932 C5.82784229,71.0930108 5.60035778,71.4234049 5.58178734,71.7956856 C5.97176663,72.3913347 6.48244614,72.8613321 7.11384119,73.2056917 C7.74523623,73.5500514 8.42768976,73.7222286 9.16122223,73.7222286 Z" id="-copy-2" fill="#444444"></path>
        </g>
    </g>
</svg>