<?xml version="1.0" encoding="UTF-8"?>
<svg width="135px" height="135px" viewBox="0 0 135 135" version="1.1" xmlns="http://www.w3.org/2000/svg" xmlns:xlink="http://www.w3.org/1999/xlink">
    <!-- Generator: Sketch 50.2 (55047) - http://www.bohemiancoding.com/sketch -->
    <title>OrgRenderingStyle_1 OrgRenderingStyle_1 OrgRenderingStyle_1 </title>
    <desc>Created with Sketch.</desc>
    <defs></defs>
    <g id="OrgRenderingStyle_1-OrgRenderingStyle_1-OrgRenderingStyle_1-" stroke="none" stroke-width="1" fill="none" fill-rule="evenodd">
        <g id="Group-2" transform="translate(1.000000, 31.000000)">
            <g id="Group" transform="translate(0.000000, 0.500000)" stroke="#FFEBB0" stroke-width="2">
                <rect id="Rectangle-3-Copy-7" fill="#FFF8E5" x="48.5963086" y="1.17861717" width="35.9199819" height="13.2827523" rx="2"></rect>
                <rect id="Rectangle-3-Copy-10" fill="#FFF8E5" x="48.5963086" y="29.1969964" width="35.9199819" height="13.2827523" rx="2"></rect>
                <rect id="Rectangle-3-Copy-11" fill="#FFF8E5" x="48.5963086" y="57.2153757" width="35.9199819" height="13.2827523" rx="2"></rect>
                <rect id="Rectangle-3-Copy-12" fill="#FFF8E5" x="1.19633127" y="57.2153757" width="35.9199819" height="13.2827523" rx="2"></rect>
                <rect id="Rectangle-3-Copy-13" fill="#FFF8E5" x="95.9962859" y="57.2153757" width="35.9199819" height="13.2827523" rx="2"></rect>
                <path d="M66.5562995,15.1332779 L66.5562995,28.7480069" id="Path-11"></path>
                <path d="M66.5562995,43.4797487 C66.5562995,51.5696909 66.5562995,55.9648918 66.5562995,56.6653513" id="Path-11-Copy"></path>
                <polyline id="Path-12" points="18.0160688 56.3710886 18.0160688 49.6419702 115.604167 49.6419702 115.604167 56.5451697"></polyline>
            </g>
            <rect id="Rectangle-5" fill="#444444" x="56.0578512" y="7" width="21.9834711" height="2"></rect>
            <rect id="Rectangle-5-Copy" fill="#444444" x="56.0578512" y="35.5" width="21.9834711" height="2"></rect>
            <rect id="Rectangle-5-Copy-2" fill="#444444" x="56.0578512" y="63.2074929" width="21.9834711" height="2"></rect>
            <rect id="Rectangle-5-Copy-4" fill="#444444" x="8.96135909" y="63.2074929" width="21.9834711" height="2"></rect>
            <rect id="Rectangle-5-Copy-3" fill="#444444" x="103.184979" y="63.2074929" width="21.9834711" height="2"></rect>
        </g>
    </g>
</svg>