<?xml version="1.0" encoding="UTF-8"?>
<svg width="101px" height="41px" viewBox="0 0 101 41" version="1.1" xmlns="http://www.w3.org/2000/svg" xmlns:xlink="http://www.w3.org/1999/xlink">
    <!-- Generator: Sketch 49.1 (51147) - http://www.bohemiancoding.com/sketch -->
    <title>OrgTemplate1</title>
    <desc>Created with Sketch.</desc>
    <defs>
        <rect id="path-1" x="0" y="5.2460383" width="100" height="30" rx="1"></rect>
    </defs>
    <g id="Page-1" stroke="none" stroke-width="1" fill="none" fill-rule="evenodd">
        <g id="Org-Chart-settings" transform="translate(-1031.000000, -631.000000)">
            <g id="OrgTemplate1" transform="translate(1031.028262, 631.009040)">
                <rect id="Rectangle-30-Copy-4" fill="#FFFFFF" transform="translate(50.000000, 20.246038) scale(-1, 1) translate(-50.000000, -20.246038) " x="0" y="0.246038305" width="100" height="40" rx="1"></rect>
                <g id="Rectangle-30-Copy-14" transform="translate(50.000000, 20.246038) scale(-1, 1) translate(-50.000000, -20.246038) ">
                    <use fill="#FFFFFF" fill-rule="evenodd" xlink:href="#path-1"></use>
                    <rect stroke="#767676" stroke-width="2" x="1" y="6.2460383" width="98" height="28" rx="1"></rect>
                </g>
                <path d="M37.1904297,24.7460383 L35.6542969,24.7460383 L35.6542969,20.8041438 L31.515625,20.8041438 L31.515625,24.7460383 L29.9731445,24.7460383 L29.9731445,15.5038508 L31.515625,15.5038508 L31.515625,19.5663508 L35.6542969,19.5663508 L35.6542969,15.5038508 L37.1904297,15.5038508 L37.1904297,24.7460383 Z M41.9638672,24.8729914 C40.9736279,24.8729914 40.1939319,24.5598435 39.6247559,23.9335383 C39.0555798,23.3072331 38.7709961,22.4862778 38.7709961,21.4706477 L38.7709961,21.2167414 C38.7709961,20.1968796 39.053464,19.363229 39.6184082,18.7157649 C40.1833524,18.0683007 40.9059201,17.7466893 41.7861328,17.7509211 C42.7340542,17.7509211 43.4492163,18.0270414 43.9316406,18.5792903 C44.4140649,19.1315391 44.6552734,19.8879606 44.6552734,20.8485774 L44.6552734,21.7562922 L40.3261719,21.7562922 C40.3684898,22.3275841 40.5345851,22.7846108 40.8244629,23.127386 C41.1143406,23.4701611 41.5258762,23.6415461 42.059082,23.6415461 C42.4822612,23.6415461 42.8387844,23.5918233 43.1286621,23.4923762 C43.4185399,23.3929291 43.7031236,23.2479924 43.9824219,23.0575617 L44.4331055,24.1112727 C44.1749662,24.3355577 43.8406596,24.5185799 43.4301758,24.6603449 C43.019692,24.80211 42.5309273,24.8729914 41.9638672,24.8729914 Z M41.7861328,18.9887141 C41.4010397,18.9887141 41.085776,19.1378825 40.840332,19.4362239 C40.5948881,19.7345652 40.4340824,20.1312897 40.3579102,20.6264094 L43.1254883,20.6264094 L43.1254883,20.467718 C43.1254883,20.0233798 43.0165213,19.6657988 42.798584,19.3949641 C42.5806467,19.1241294 42.2431663,18.9887141 41.7861328,18.9887141 Z M50.0317383,24.7460383 C49.9851886,24.6021574 49.9460451,24.4582786 49.9143066,24.3143977 C49.8825682,24.1705168 49.8582358,24.0224063 49.8413086,23.8700617 C49.60856,24.1662872 49.3271501,24.4074957 48.9970703,24.5936946 C48.6669905,24.7798934 48.2945984,24.8729914 47.8798828,24.8729914 C47.1731735,24.8729914 46.6304544,24.692085 46.251709,24.3302668 C45.8729636,23.9684486 45.6835938,23.4616991 45.6835938,22.8100031 C45.6835938,22.1329164 45.9417292,21.6124138 46.4580078,21.2484797 C46.9742864,20.8845456 47.7169548,20.7025813 48.6860352,20.7025813 L49.8095703,20.7025813 L49.8095703,20.0995539 C49.8095703,19.7356198 49.7037771,19.4531519 49.4921875,19.2521418 C49.2805979,19.0511317 48.9716817,18.9506281 48.5654297,18.9506281 C48.193032,18.9506281 47.9010427,19.0342048 47.6894531,19.2013606 C47.4778635,19.3685164 47.3720703,19.5875083 47.3720703,19.858343 L45.8295898,19.858343 C45.8295898,19.2828193 46.0887832,18.787707 46.6071777,18.3729914 C47.1255723,17.9582758 47.8100543,17.7509211 48.6606445,17.7509211 C49.4773804,17.7509211 50.1301245,17.9508703 50.6188965,18.3507746 C51.1076685,18.750679 51.3520508,19.3378313 51.3520508,20.1122492 L51.3520508,23.1654719 C51.3520508,23.4574655 51.3700356,23.730412 51.4060059,23.9843196 C51.4419761,24.2382271 51.5043941,24.4921308 51.5932617,24.7460383 L50.0317383,24.7460383 Z M48.2163086,23.6351985 C48.5717791,23.6351985 48.8902167,23.5590273 49.1716309,23.4066828 C49.453045,23.2543383 49.6656894,23.0639105 49.8095703,22.8353938 L49.8095703,21.667425 L48.6606445,21.667425 C48.1993792,21.667425 47.8449719,21.776392 47.5974121,21.9943293 C47.3498523,22.2122666 47.2260742,22.4756917 47.2260742,22.7846125 C47.2260742,23.0512154 47.3085929,23.259628 47.4736328,23.4098567 C47.6386727,23.5600853 47.8862288,23.6351985 48.2163086,23.6351985 Z M52.6850586,21.4071711 C52.6850586,20.289978 52.9156878,19.401315 53.3769531,18.7411555 C53.8382185,18.0809959 54.5025998,17.7509211 55.3701172,17.7509211 C55.7509785,17.7509211 56.0842271,17.8228605 56.369873,17.9667414 C56.655519,18.1106224 56.9041331,18.3200929 57.1157227,18.5951594 L57.1347656,18.5888117 L57.1347656,14.8436946 L58.6772461,14.8436946 L58.6772461,24.7460383 L57.3442383,24.7460383 L57.2172852,23.9081477 C56.9930002,24.2297639 56.7295751,24.4709724 56.427002,24.6317805 C56.1244288,24.7925886 55.7679057,24.8729914 55.3574219,24.8729914 C54.4983681,24.8729914 53.8382185,24.5725387 53.3769531,23.9716242 C52.9156878,23.3707098 52.6850586,22.5603338 52.6850586,21.5404719 L52.6850586,21.4071711 Z M54.2275391,21.5404719 C54.2275391,22.1879361 54.3470854,22.6957435 54.5861816,23.0639094 C54.8252779,23.4320753 55.213539,23.6161555 55.7509766,23.6161555 C56.0810563,23.6161555 56.3571766,23.5484478 56.5793457,23.4130305 C56.8015148,23.2776131 56.9866529,23.0787219 57.1347656,22.8163508 L57.1347656,19.8202571 C56.9866529,19.5621177 56.8015148,19.3632265 56.5793457,19.2235774 C56.3571766,19.0839282 56.0852881,19.0141047 55.7636719,19.0141047 C55.2262343,19.0141047 54.8358573,19.2320387 54.5925293,19.6679133 C54.3492013,20.1037879 54.2275391,20.6835347 54.2275391,21.4071711 L54.2275391,21.5404719 Z M63.2792969,24.8729914 C62.2890575,24.8729914 61.5093616,24.5598435 60.9401855,23.9335383 C60.3710095,23.3072331 60.0864258,22.4862778 60.0864258,21.4706477 L60.0864258,21.2167414 C60.0864258,20.1968796 60.3688937,19.363229 60.9338379,18.7157649 C61.4987821,18.0683007 62.2213498,17.7466893 63.1015625,17.7509211 C64.0494839,17.7509211 64.764646,18.0270414 65.2470703,18.5792903 C65.7294946,19.1315391 65.9707031,19.8879606 65.9707031,20.8485774 L65.9707031,21.7562922 L61.6416016,21.7562922 C61.6839195,22.3275841 61.8500148,22.7846108 62.1398926,23.127386 C62.4297703,23.4701611 62.8413059,23.6415461 63.3745117,23.6415461 C63.7976909,23.6415461 64.154214,23.5918233 64.4440918,23.4923762 C64.7339695,23.3929291 65.0185533,23.2479924 65.2978516,23.0575617 L65.7485352,24.1112727 C65.4903958,24.3355577 65.1560893,24.5185799 64.7456055,24.6603449 C64.3351216,24.80211 63.846357,24.8729914 63.2792969,24.8729914 Z M63.1015625,18.9887141 C62.7164694,18.9887141 62.4012057,19.1378825 62.1557617,19.4362239 C61.9103178,19.7345652 61.7495121,20.1312897 61.6733398,20.6264094 L64.440918,20.6264094 L64.440918,20.467718 C64.440918,20.0233798 64.331951,19.6657988 64.1140137,19.3949641 C63.8960764,19.1241294 63.558596,18.9887141 63.1015625,18.9887141 Z M70.7060547,19.2870539 L69.9760742,19.2616633 C69.6713852,19.2616633 69.4195973,19.3230234 69.2207031,19.4457453 C69.0218089,19.5684673 68.8673508,19.7461999 68.7573242,19.9789485 L68.7573242,24.7460383 L67.2148438,24.7460383 L67.2148438,17.8778742 L68.6240234,17.8778742 L68.7192383,18.842718 L68.7382812,18.842718 C68.9117847,18.4999428 69.1318346,18.232286 69.3984375,18.0397395 C69.6650404,17.8471929 69.9781883,17.7509211 70.3378906,17.7509211 C70.4394536,17.7509211 70.5410151,17.7583266 70.6425781,17.7731379 C70.7441411,17.7879492 70.8266598,17.805934 70.8901367,17.827093 L70.7060547,19.2870539 Z" id="Header" fill="#313131"></path>
            </g>
        </g>
    </g>
</svg>