<?xml version="1.0" encoding="UTF-8"?>
<svg width="101px" height="41px" viewBox="0 0 101 41" version="1.1" xmlns="http://www.w3.org/2000/svg" xmlns:xlink="http://www.w3.org/1999/xlink">
    <!-- Generator: Sketch 49.1 (51147) - http://www.bohemiancoding.com/sketch -->
    <title>OrgTemplate4</title>
    <desc>Created with Sketch.</desc>
    <defs>
        <rect id="path-1" x="0.736616338" y="0.724753422" width="100" height="40" rx="1"></rect>
    </defs>
    <g id="Page-1" stroke="none" stroke-width="1" fill="none" fill-rule="evenodd">
        <g id="Org-Chart-settings" transform="translate(-1154.000000, -695.000000)">
            <g id="OrgTemplate4" transform="translate(1154.028262, 695.009040)">
                <g id="Rectangle-30-Copy-10" transform="translate(50.736616, 20.724753) scale(-1, 1) translate(-50.736616, -20.724753) ">
                    <use fill="#FFFFFF" fill-rule="evenodd" xlink:href="#path-1"></use>
                    <rect stroke="#767676" stroke-width="2" x="1.73661634" y="1.72475342" width="98" height="38" rx="1"></rect>
                </g>
                <path d="M52.2265625,18.5431419 L50.6904297,18.5431419 L50.6904297,14.6012474 L46.5517578,14.6012474 L46.5517578,18.5431419 L45.0092773,18.5431419 L45.0092773,9.30095443 L46.5517578,9.30095443 L46.5517578,13.3634544 L50.6904297,13.3634544 L50.6904297,9.30095443 L52.2265625,9.30095443 L52.2265625,18.5431419 Z M57,18.6700951 C56.0097607,18.6700951 55.2300647,18.3569471 54.6608887,17.7306419 C54.0917126,17.1043367 53.8071289,16.2833814 53.8071289,15.2677513 L53.8071289,15.0138451 C53.8071289,13.9939832 54.0895968,13.1603327 54.654541,12.5128685 C55.2194852,11.8654043 55.9420529,11.543793 56.8222656,11.5480247 C57.770187,11.5480247 58.4853492,11.824145 58.9677734,12.3763939 C59.4501977,12.9286427 59.6914062,13.6850642 59.6914062,14.645681 L59.6914062,15.5533958 L55.3623047,15.5533958 C55.4046226,16.1246878 55.570718,16.5817144 55.8605957,16.9244896 C56.1504735,17.2672647 56.5620091,17.4386497 57.0952148,17.4386497 C57.518394,17.4386497 57.8749172,17.3889269 58.1647949,17.2894798 C58.4546727,17.1900327 58.7392564,17.045096 59.0185547,16.8546654 L59.4692383,17.9083763 C59.211099,18.1326613 58.8767924,18.3156835 58.4663086,18.4574486 C58.0558248,18.5992136 57.5670601,18.6700951 57,18.6700951 Z M56.8222656,12.7858177 C56.4371726,12.7858177 56.1219088,12.9349861 55.8764648,13.2333275 C55.6310209,13.5316688 55.4702152,13.9283934 55.394043,14.423513 L58.1616211,14.423513 L58.1616211,14.2648216 C58.1616211,13.8204835 58.0526541,13.4629024 57.8347168,13.1920677 C57.6167795,12.921233 57.2792992,12.7858177 56.8222656,12.7858177 Z M65.0678711,18.5431419 C65.0213214,18.399261 64.9821779,18.2553822 64.9504395,18.1115013 C64.918701,17.9676204 64.8943686,17.8195099 64.8774414,17.6671654 C64.6446928,17.9633908 64.3632829,18.2045993 64.0332031,18.3907982 C63.7031233,18.576997 63.3307312,18.6700951 62.9160156,18.6700951 C62.2093064,18.6700951 61.6665872,18.4891887 61.2878418,18.1273704 C60.9090964,17.7655522 60.7197266,17.2588027 60.7197266,16.6071068 C60.7197266,15.9300201 60.977862,15.4095175 61.4941406,15.0455833 C62.0104192,14.6816492 62.7530876,14.4996849 63.722168,14.4996849 L64.8457031,14.4996849 L64.8457031,13.8966576 C64.8457031,13.5327234 64.7399099,13.2502556 64.5283203,13.0492454 C64.3167307,12.8482353 64.0078145,12.7477318 63.6015625,12.7477318 C63.2291648,12.7477318 62.9371755,12.8313084 62.7255859,12.9984642 C62.5139963,13.16562 62.4082031,13.3846119 62.4082031,13.6554466 L60.8657227,13.6554466 C60.8657227,13.0799229 61.124916,12.5848107 61.6433105,12.1700951 C62.1617051,11.7553794 62.8461872,11.5480247 63.6967773,11.5480247 C64.5135132,11.5480247 65.1662573,11.7479739 65.6550293,12.1478783 C66.1438013,12.5477826 66.3881836,13.1349349 66.3881836,13.9093529 L66.3881836,16.9625755 C66.3881836,17.2545692 66.4061684,17.5275157 66.4421387,17.7814232 C66.4781089,18.0353307 66.5405269,18.2892344 66.6293945,18.5431419 L65.0678711,18.5431419 Z M63.2524414,17.4323021 C63.6079119,17.4323021 63.9263495,17.356131 64.2077637,17.2037865 C64.4891778,17.051442 64.7018222,16.8610142 64.8457031,16.6324974 L64.8457031,15.4645287 L63.6967773,15.4645287 C63.235512,15.4645287 62.8811048,15.5734957 62.6335449,15.7914329 C62.3859851,16.0093702 62.262207,16.2727953 62.262207,16.5817162 C62.262207,16.848319 62.3447257,17.0567317 62.5097656,17.2069603 C62.6748055,17.3571889 62.9223616,17.4323021 63.2524414,17.4323021 Z M67.7211914,15.2042747 C67.7211914,14.0870817 67.9518206,13.1984187 68.4130859,12.5382591 C68.8743513,11.8780996 69.5387326,11.5480247 70.40625,11.5480247 C70.7871113,11.5480247 71.1203599,11.6199641 71.4060059,11.7638451 C71.6916518,11.907726 71.9402659,12.1171965 72.1518555,12.392263 L72.1708984,12.3859154 L72.1708984,8.64079818 L73.7133789,8.64079818 L73.7133789,18.5431419 L72.3803711,18.5431419 L72.253418,17.7052513 C72.029133,18.0268675 71.7657079,18.268076 71.4631348,18.4288841 C71.1605616,18.5896922 70.8040385,18.6700951 70.3935547,18.6700951 C69.5345009,18.6700951 68.8743513,18.3696423 68.4130859,17.7687279 C67.9518206,17.1678134 67.7211914,16.3574374 67.7211914,15.3375755 L67.7211914,15.2042747 Z M69.2636719,15.3375755 C69.2636719,15.9850397 69.3832182,16.4928471 69.6223145,16.861013 C69.8614107,17.2291789 70.2496718,17.4132591 70.7871094,17.4132591 C71.1171892,17.4132591 71.3933094,17.3455515 71.6154785,17.2101341 C71.8376476,17.0747168 72.0227857,16.8758255 72.1708984,16.6134544 L72.1708984,13.6173607 C72.0227857,13.3592214 71.8376476,13.1603301 71.6154785,13.020681 C71.3933094,12.8810319 71.1214209,12.8112083 70.7998047,12.8112083 C70.2623671,12.8112083 69.8719901,13.0291424 69.6286621,13.4650169 C69.3853341,13.9008915 69.2636719,14.4806383 69.2636719,15.2042747 L69.2636719,15.3375755 Z M78.3154297,18.6700951 C77.3251904,18.6700951 76.5454944,18.3569471 75.9763184,17.7306419 C75.4071423,17.1043367 75.1225586,16.2833814 75.1225586,15.2677513 L75.1225586,15.0138451 C75.1225586,13.9939832 75.4050265,13.1603327 75.9699707,12.5128685 C76.5349149,11.8654043 77.2574826,11.543793 78.1376953,11.5480247 C79.0856167,11.5480247 79.8007788,11.824145 80.2832031,12.3763939 C80.7656274,12.9286427 81.0068359,13.6850642 81.0068359,14.645681 L81.0068359,15.5533958 L76.6777344,15.5533958 C76.7200523,16.1246878 76.8861476,16.5817144 77.1760254,16.9244896 C77.4659031,17.2672647 77.8774387,17.4386497 78.4106445,17.4386497 C78.8338237,17.4386497 79.1903469,17.3889269 79.4802246,17.2894798 C79.7701024,17.1900327 80.0546861,17.045096 80.3339844,16.8546654 L80.784668,17.9083763 C80.5265287,18.1326613 80.1922221,18.3156835 79.7817383,18.4574486 C79.3712545,18.5992136 78.8824898,18.6700951 78.3154297,18.6700951 Z M78.1376953,12.7858177 C77.7526022,12.7858177 77.4373385,12.9349861 77.1918945,13.2333275 C76.9464506,13.5316688 76.7856449,13.9283934 76.7094727,14.423513 L79.4770508,14.423513 L79.4770508,14.2648216 C79.4770508,13.8204835 79.3680838,13.4629024 79.1501465,13.1920677 C78.9322092,12.921233 78.5947288,12.7858177 78.1376953,12.7858177 Z M85.7421875,13.0841576 L85.012207,13.0587669 C84.707518,13.0587669 84.4557302,13.120127 84.2568359,13.242849 C84.0579417,13.3655709 83.9034836,13.5433035 83.793457,13.7760521 L83.793457,18.5431419 L82.2509766,18.5431419 L82.2509766,11.6749779 L83.6601562,11.6749779 L83.7553711,12.6398216 L83.7744141,12.6398216 C83.9479175,12.2970465 84.1679674,12.0293896 84.4345703,11.8368431 C84.7011732,11.6442966 85.0143211,11.5480247 85.3740234,11.5480247 C85.4755864,11.5480247 85.5771479,11.5554303 85.6787109,11.5702415 C85.7802739,11.5850528 85.8627927,11.6030377 85.9262695,11.6241966 L85.7421875,13.0841576 Z" id="Header" fill="#313131"></path>
                <path d="M49.640625,30.0098522 C49.640625,29.6387566 49.5000014,29.3379784 49.21875,29.1075085 C48.9374986,28.8770386 48.4355505,28.6680563 47.7128906,28.4805553 C46.8535113,28.2696168 46.1865258,27.9551668 45.7119141,27.537196 C45.2373023,27.1192251 45,26.5918867 45,25.9551647 C45,25.2832864 45.2539037,24.7256747 45.7617188,24.2823132 C46.2695338,23.8389516 46.9374959,23.6172741 47.765625,23.6172741 C48.664067,23.6172741 49.3798801,23.8721544 49.9130859,24.3819225 C50.4462917,24.8916907 50.7050782,25.4864113 50.6894531,26.1661022 L50.671875,26.2012585 L49.5703125,26.2012585 C49.5703125,25.716881 49.4013689,25.3164944 49.0634766,25.0000866 C48.7255842,24.6836788 48.2929714,24.5254772 47.765625,24.5254772 C47.2304661,24.5254772 46.8281263,24.6553587 46.5585938,24.9151257 C46.2890612,25.1748926 46.1542969,25.5157095 46.1542969,25.9375866 C46.1542969,26.3125885 46.3056625,26.6241088 46.6083984,26.8721569 C46.9111343,27.120205 47.4121059,27.3360232 48.1113281,27.5196178 C48.9902388,27.7500877 49.6572243,28.0645377 50.1123047,28.4629772 C50.5673851,28.8614167 50.7949219,29.3731303 50.7949219,29.9981335 C50.7949219,30.6934494 50.5224637,31.2666859 49.9775391,31.71786 C49.4326145,32.1690342 48.7285199,32.3946178 47.8652344,32.3946178 C47.0410115,32.3946178 46.3134797,32.1641514 45.6826172,31.7032116 C45.0517547,31.2422718 44.7460937,30.6250905 44.765625,29.8516491 L44.7773438,29.8164928 L45.8789062,29.8164928 C45.8789062,30.3516518 46.0820292,30.7647336 46.4882812,31.0557507 C46.8945333,31.3467677 47.3535131,31.4922741 47.8652344,31.4922741 C48.4042996,31.4922741 48.8349593,31.3526271 49.1572266,31.0733288 C49.4794938,30.7940305 49.640625,30.4395419 49.640625,30.0098522 Z M56.2265625,31.3282116 C56.0273428,31.668057 55.7705094,31.9307497 55.4560547,32.1162975 C55.1416,32.3018453 54.781252,32.3946178 54.375,32.3946178 C53.6835903,32.3946178 53.1445332,32.1739169 52.7578125,31.7325085 C52.3710918,31.2911 52.1777344,30.6036069 52.1777344,29.6700085 L52.1777344,25.9317272 L53.3320312,25.9317272 L53.3320312,29.6817272 C53.3320312,30.3575118 53.4316396,30.8223509 53.6308594,31.0762585 C53.8300791,31.330166 54.1406229,31.4571178 54.5625,31.4571178 C54.9726583,31.4571178 55.3115221,31.3731343 55.5791016,31.2051647 C55.846681,31.0371951 56.0488274,30.7989163 56.1855469,30.490321 L56.1855469,25.9317272 L57.3398438,25.9317272 L57.3398438,32.271571 L56.3027344,32.271571 L56.2265625,31.3282116 Z M64.4355469,29.3418835 C64.4355469,30.2559505 64.2158225,30.9932479 63.7763672,31.5537975 C63.3369119,32.1143472 62.7324257,32.3946178 61.9628906,32.3946178 C61.5410135,32.3946178 61.1748062,32.3116109 60.8642578,32.1455944 C60.5537094,31.9795779 60.296876,31.7344632 60.09375,31.4102428 L59.90625,32.271571 L59.0214844,32.271571 L59.0214844,23.130946 L60.1757812,23.130946 L60.1757812,26.6817272 C60.375001,26.4004758 60.6220688,26.1856342 60.9169922,26.037196 C61.2119155,25.8887577 61.5566387,25.8145397 61.9511719,25.8145397 C62.7324258,25.8145397 63.3417947,26.1270366 63.7792969,26.7520397 C64.2167991,27.3770428 64.4355469,28.1993002 64.4355469,29.2188366 L64.4355469,29.3418835 Z M63.28125,29.2188366 C63.28125,28.4922705 63.1474623,27.8995029 62.8798828,27.4405163 C62.6123033,26.9815296 62.2050809,26.7520397 61.6582031,26.7520397 C61.3027326,26.7520397 61.0029309,26.8389529 60.7587891,27.0127819 C60.5146472,27.1866109 60.3203132,27.420007 60.1757812,27.7129772 L60.1757812,30.4610241 C60.3242195,30.7735257 60.5185535,31.0176638 60.7587891,31.193446 C60.9990246,31.3692281 61.3027325,31.4571178 61.6699219,31.4571178 C62.2128933,31.4571178 62.6171862,31.2637604 62.8828125,30.8770397 C63.1484388,30.490319 63.28125,29.9786054 63.28125,29.3418835 L63.28125,29.2188366 Z M67.3125,24.4024303 L67.3125,25.9317272 L68.5136719,25.9317272 L68.5136719,26.787196 L67.3125,26.787196 L67.3125,30.6368053 C67.3125,30.9336818 67.3740228,31.1426641 67.4970703,31.2637585 C67.6201178,31.3848528 67.7832021,31.4453991 67.9863281,31.4453991 C68.0527347,31.4453991 68.1259762,31.4375867 68.2060547,31.4219616 C68.2861332,31.4063365 68.3574216,31.3868055 68.4199219,31.3633678 L68.578125,32.1543835 C68.4882808,32.2246963 68.3593758,32.2823129 68.1914062,32.327235 C68.0234367,32.3721571 67.8574227,32.3946178 67.6933594,32.3946178 C67.2285133,32.3946178 66.8564467,32.2530177 66.5771484,31.9698132 C66.2978502,31.6866086 66.1582031,31.2422771 66.1582031,30.6368053 L66.1582031,26.787196 L65.15625,26.787196 L65.15625,25.9317272 L66.1582031,25.9317272 L66.1582031,24.4024303 L67.3125,24.4024303 Z M72.4160156,32.3946178 C71.4706984,32.3946178 70.731448,32.1026286 70.1982422,31.5186413 C69.6650364,30.934654 69.3984375,30.1700132 69.3984375,29.224696 L69.3984375,28.9668835 C69.3984375,28.0567227 69.6611302,27.3038005 70.1865234,26.7080944 C70.7119167,26.1123883 71.3535118,25.8145397 72.1113281,25.8145397 C72.9589886,25.8145397 73.5947244,26.078209 74.0185547,26.6055553 C74.4423849,27.1329017 74.6542969,27.8340666 74.6542969,28.709071 L74.6542969,29.318446 L70.5996094,29.318446 L70.5878906,29.3477428 C70.5839844,29.9805585 70.7333969,30.4961783 71.0361328,30.8946178 C71.3388687,31.2930573 71.798825,31.4922741 72.4160156,31.4922741 C72.79883,31.4922741 73.1035145,31.4522354 73.3300781,31.3721569 C73.5566418,31.2920784 73.8242172,31.1700093 74.1328125,31.005946 L74.4199219,31.8203991 C74.2089833,31.9727436 73.95215,32.1065313 73.6494141,32.2217663 C73.3466782,32.3370012 72.9355495,32.3946178 72.4160156,32.3946178 Z M72.1113281,26.7227428 C71.7089824,26.7227428 71.3759779,26.8780147 71.1123047,27.1885632 C70.8486315,27.4991116 70.6875003,27.8965685 70.6289062,28.380946 L70.640625,28.4102428 L73.5,28.4102428 L73.5,28.3164928 C73.5,27.855553 73.3867199,27.4746975 73.1601562,27.1739147 C72.9335926,26.873132 72.5839867,26.7227428 72.1113281,26.7227428 Z M78.0996094,28.2696178 L79.4472656,25.9317272 L80.7949219,25.9317272 L78.7382812,29.0664928 L80.8535156,32.271571 L79.5292969,32.271571 L78.1230469,29.8750866 L76.7167969,32.271571 L75.3808594,32.271571 L77.4960938,29.0664928 L75.4394531,25.9317272 L76.7695312,25.9317272 L78.0996094,28.2696178 Z M83.4550781,24.4024303 L83.4550781,25.9317272 L84.65625,25.9317272 L84.65625,26.787196 L83.4550781,26.787196 L83.4550781,30.6368053 C83.4550781,30.9336818 83.5166009,31.1426641 83.6396484,31.2637585 C83.7626959,31.3848528 83.9257802,31.4453991 84.1289062,31.4453991 C84.1953128,31.4453991 84.2685543,31.4375867 84.3486328,31.4219616 C84.4287113,31.4063365 84.4999997,31.3868055 84.5625,31.3633678 L84.7207031,32.1543835 C84.6308589,32.2246963 84.501954,32.2823129 84.3339844,32.327235 C84.1660148,32.3721571 84.0000008,32.3946178 83.8359375,32.3946178 C83.3710914,32.3946178 82.9990248,32.2530177 82.7197266,31.9698132 C82.4404283,31.6866086 82.3007812,31.2422771 82.3007812,30.6368053 L82.3007812,26.787196 L81.2988281,26.787196 L81.2988281,25.9317272 L82.3007812,25.9317272 L82.3007812,24.4024303 L83.4550781,24.4024303 Z" id="Subtext-Copy" fill="#6F6F6F"></path>
                <path d="M8.46231864,30.8810685 L8.46231864,32.8743639 L32.7615397,32.8743639 L32.7615397,30.8810685 C32.5084215,28.8561233 30.9897354,27.3057978 28.2054357,26.2300457 C25.4211361,25.1542935 22.8899925,24.6164255 20.6119292,24.6164255 C18.3338658,24.6164255 15.8027223,25.1542935 13.0184226,26.2300457 C10.2341229,27.3057978 8.71543679,28.8561233 8.46231864,30.8810685 Z M26.6867344,14.6499482 C26.6234549,12.9414006 26.0223083,11.5176324 24.8832766,10.3786007 C23.7442449,9.23956903 22.3204767,8.67006173 20.6119292,8.67006173 C18.9033816,8.67006173 17.4796134,9.23956903 16.3405817,10.3786007 C15.20155,11.5176324 14.6320427,12.9414006 14.6320427,14.6499482 C14.6320427,16.3584957 15.20155,17.7822639 16.3405817,18.9212956 C17.4796134,20.0603273 18.9033816,20.6298346 20.6119292,20.6298346 C22.3204767,20.6298346 23.7442449,20.0603273 24.8832766,18.9212956 C26.0223083,17.7822639 26.6234549,16.3584957 26.6867344,14.6499482 Z M34.9001773,2.50033763 L39.1058117,2.50033763 L39.1058117,38.9491692 L34.9001773,38.9491692 C34.8520489,38.9484443 34.8036015,38.9491692 34.7548352,38.9491692 L6.46902316,38.9491692 L2.38751337,38.9491692 L2.38751337,2.50033763 L6.46902316,2.50033763 L34.7548352,2.50033763 C34.8036015,2.50033763 34.8520489,2.50106258 34.9001773,2.50251248 Z" id="Combined-Shape-Copy" fill="#767676"></path>
            </g>
        </g>
    </g>
</svg>