<?xml version="1.0" encoding="UTF-8"?>
<svg width="101px" height="41px" viewBox="0 0 101 41" version="1.1" xmlns="http://www.w3.org/2000/svg" xmlns:xlink="http://www.w3.org/1999/xlink">
    <!-- Generator: Sketch 49.1 (51147) - http://www.bohemiancoding.com/sketch -->
    <title>OrgTemplate3</title>
    <desc>Created with Sketch.</desc>
    <defs>
        <rect id="path-1" x="0" y="5.27157097" width="100" height="30" rx="1"></rect>
    </defs>
    <g id="Page-1" stroke="none" stroke-width="1" fill="none" fill-rule="evenodd">
        <g id="Org-Chart-settings" transform="translate(-1030.000000, -696.000000)">
            <g id="OrgTemplate3" transform="translate(1030.028262, 696.009040)">
                <rect id="Rectangle-30-Copy-9" fill="#FFFFFF" transform="translate(50.000000, 20.271571) scale(-1, 1) translate(-50.000000, -20.271571) " x="0" y="0.271570967" width="100" height="40" rx="1"></rect>
                <g id="Rectangle-30-Copy-17" transform="translate(50.000000, 20.271571) scale(-1, 1) translate(-50.000000, -20.271571) ">
                    <use fill="#FFFFFF" fill-rule="evenodd" xlink:href="#path-1"></use>
                    <rect stroke="#767676" stroke-width="2" x="1" y="6.27157097" width="98" height="28" rx="1"></rect>
                </g>
                <path d="M6.27024961,27.5163626 L6.27024961,28.9382376 L23.6035829,28.9382376 L23.6035829,27.5163626 C23.4230265,26.071911 22.339704,24.9660192 20.3535829,24.1986543 C18.3674619,23.4312894 16.5619244,23.0476126 14.9369163,23.0476126 C13.3119081,23.0476126 11.5063706,23.4312894 9.52024961,24.1986543 C7.53412856,24.9660192 6.45080606,26.071911 6.27024961,27.5163626 Z M19.2702496,15.9382376 C19.2251105,14.7194815 18.7962953,13.7038667 17.9837913,12.8913626 C17.1712872,12.0788586 16.1556724,11.6726126 14.9369163,11.6726126 C13.7181602,11.6726126 12.7025453,12.0788586 11.8900413,12.8913626 C11.0775372,13.7038667 10.6712913,14.7194815 10.6712913,15.9382376 C10.6712913,17.1569937 11.0775372,18.1726086 11.8900413,18.9851126 C12.7025453,19.7976167 13.7181602,20.2038626 14.9369163,20.2038626 C16.1556724,20.2038626 17.1712872,19.7976167 17.9837913,18.9851126 C18.7962953,18.1726086 19.2251105,17.1569937 19.2702496,15.9382376 Z M25.1291346,7.27157097 L28.1291346,7.27157097 L28.1291346,33.271571 L25.1291346,33.271571 C25.0948033,33.2710538 25.0602444,33.271571 25.0254579,33.271571 L4.84837461,33.271571 L1.93691627,33.271571 L1.93691627,7.27157097 L4.84837461,7.27157097 L25.0254579,7.27157097 C25.0602444,7.27157097 25.0948033,7.27208809 25.1291346,7.27312234 Z" id="Combined-Shape" fill="#767676"></path>
                <path d="M43.113935,24.771571 L41.5778022,24.771571 L41.5778022,20.8296764 L37.4391303,20.8296764 L37.4391303,24.771571 L35.8966499,24.771571 L35.8966499,15.5293835 L37.4391303,15.5293835 L37.4391303,19.5918835 L41.5778022,19.5918835 L41.5778022,15.5293835 L43.113935,15.5293835 L43.113935,24.771571 Z M47.8873725,24.8985241 C46.8971332,24.8985241 46.1174372,24.5853762 45.5482612,23.959071 C44.9790852,23.3327658 44.6945014,22.5118104 44.6945014,21.4961803 L44.6945014,21.2422741 C44.6945014,20.2224122 44.9769693,19.3887617 45.5419135,18.7412975 C46.1068578,18.0938334 46.8294254,17.772222 47.7096381,17.7764538 C48.6575596,17.7764538 49.3727217,18.0525741 49.855146,18.6048229 C50.3375702,19.1570718 50.5787788,19.9134932 50.5787788,20.87411 L50.5787788,21.7818249 L46.2496772,21.7818249 C46.2919951,22.3531168 46.4580905,22.8101435 46.7479682,23.1529186 C47.037846,23.4956938 47.4493816,23.6670788 47.9825874,23.6670788 C48.4057666,23.6670788 48.7622897,23.617356 49.0521674,23.5179089 C49.3420452,23.4184617 49.6266289,23.273525 49.9059272,23.0830944 L50.3566108,24.1368053 C50.0984715,24.3610903 49.7641649,24.5441126 49.3536811,24.6858776 C48.9431973,24.8276426 48.4544326,24.8985241 47.8873725,24.8985241 Z M47.7096381,19.0142467 C47.3245451,19.0142467 47.0092813,19.1634152 46.7638374,19.4617565 C46.5183934,19.7600978 46.3575877,20.1568224 46.2814155,20.6519421 L49.0489936,20.6519421 L49.0489936,20.4932507 C49.0489936,20.0489125 48.9400266,19.6913314 48.7220893,19.4204967 C48.504152,19.1496621 48.1666717,19.0142467 47.7096381,19.0142467 Z M55.9552436,24.771571 C55.9086939,24.62769 55.8695504,24.4838113 55.837812,24.3399303 C55.8060735,24.1960494 55.7817411,24.0479389 55.7648139,23.8955944 C55.5320654,24.1918198 55.2506554,24.4330284 54.9205756,24.6192272 C54.5904959,24.8054261 54.2181038,24.8985241 53.8033881,24.8985241 C53.0966789,24.8985241 52.5539597,24.7176177 52.1752143,24.3557995 C51.7964689,23.9939813 51.6070991,23.4872318 51.6070991,22.8355358 C51.6070991,22.1584491 51.8652345,21.6379465 52.3815131,21.2740124 C52.8977918,20.9100783 53.6404601,20.7281139 54.6095405,20.7281139 L55.7330756,20.7281139 L55.7330756,20.1250866 C55.7330756,19.7611525 55.6272824,19.4786846 55.4156928,19.2776745 C55.2041032,19.0766644 54.8951871,18.9761608 54.488935,18.9761608 C54.1165373,18.9761608 53.8245481,19.0597374 53.6129585,19.2268932 C53.4013689,19.394049 53.2955756,19.613041 53.2955756,19.8838757 L51.7530952,19.8838757 C51.7530952,19.3083519 52.0122885,18.8132397 52.5306831,18.3985241 C53.0490776,17.9838085 53.7335597,17.7764538 54.5841499,17.7764538 C55.4008857,17.7764538 56.0536298,17.976403 56.5424018,18.3763073 C57.0311738,18.7762116 57.2755561,19.363364 57.2755561,20.1377819 L57.2755561,23.1910046 C57.2755561,23.4829982 57.293541,23.7559447 57.3295112,24.0098522 C57.3654814,24.2637597 57.4278994,24.5176634 57.5167671,24.771571 L55.9552436,24.771571 Z M54.1398139,23.6607311 C54.4952845,23.6607311 54.813722,23.58456 55.0951362,23.4322155 C55.3765504,23.279871 55.5891947,23.0894432 55.7330756,22.8609264 L55.7330756,21.6929577 L54.5841499,21.6929577 C54.1228845,21.6929577 53.7684773,21.8019247 53.5209174,22.019862 C53.2733576,22.2377993 53.1495796,22.5012244 53.1495796,22.8101452 C53.1495796,23.0767481 53.2320983,23.2851607 53.3971381,23.4353893 C53.562178,23.5856179 53.8097342,23.6607311 54.1398139,23.6607311 Z M58.6085639,21.4327038 C58.6085639,20.3155107 58.8391931,19.4268477 59.3004585,18.7666882 C59.7617238,18.1065286 60.4261052,17.7764538 61.2936225,17.7764538 C61.6744838,17.7764538 62.0077324,17.8483932 62.2933784,17.9922741 C62.5790243,18.136155 62.8276384,18.3456256 63.039228,18.6206921 L63.058271,18.6143444 L63.058271,14.8692272 L64.6007514,14.8692272 L64.6007514,24.771571 L63.2677436,24.771571 L63.1407905,23.9336803 C62.9165055,24.2552965 62.6530804,24.4965051 62.3505073,24.6573132 C62.0479342,24.8181213 61.691411,24.8985241 61.2809272,24.8985241 C60.4218734,24.8985241 59.7617238,24.5980714 59.3004585,23.9971569 C58.8391931,23.3962424 58.6085639,22.5858664 58.6085639,21.5660046 L58.6085639,21.4327038 Z M60.1510444,21.5660046 C60.1510444,22.2134687 60.2705907,22.7212762 60.509687,23.0894421 C60.7487832,23.457608 61.1370443,23.6416882 61.6744819,23.6416882 C62.0045617,23.6416882 62.280682,23.5739805 62.502851,23.4385632 C62.7250201,23.3031458 62.9101582,23.1042546 63.058271,22.8418835 L63.058271,19.8457897 C62.9101582,19.5876504 62.7250201,19.3887592 62.502851,19.24911 C62.280682,19.1094609 62.0087934,19.0396374 61.6871772,19.0396374 C61.1497396,19.0396374 60.7593627,19.2575714 60.5160346,19.693446 C60.2727066,20.1293205 60.1510444,20.7090673 60.1510444,21.4327038 L60.1510444,21.5660046 Z M69.2028022,24.8985241 C68.2125629,24.8985241 67.4328669,24.5853762 66.8636909,23.959071 C66.2945149,23.3327658 66.0099311,22.5118104 66.0099311,21.4961803 L66.0099311,21.2422741 C66.0099311,20.2224122 66.292399,19.3887617 66.8573432,18.7412975 C67.4222875,18.0938334 68.1448551,17.772222 69.0250678,17.7764538 C69.9729892,17.7764538 70.6881514,18.0525741 71.1705756,18.6048229 C71.6529999,19.1570718 71.8942085,19.9134932 71.8942085,20.87411 L71.8942085,21.7818249 L67.5651069,21.7818249 C67.6074248,22.3531168 67.7735202,22.8101435 68.0633979,23.1529186 C68.3532757,23.4956938 68.7648113,23.6670788 69.2980171,23.6670788 C69.7211962,23.6670788 70.0777194,23.617356 70.3675971,23.5179089 C70.6574749,23.4184617 70.9420586,23.273525 71.2213569,23.0830944 L71.6720405,24.1368053 C71.4139012,24.3610903 71.0795946,24.5441126 70.6691108,24.6858776 C70.258627,24.8276426 69.7698623,24.8985241 69.2028022,24.8985241 Z M69.0250678,19.0142467 C68.6399748,19.0142467 68.324711,19.1634152 68.0792671,19.4617565 C67.8338231,19.7600978 67.6730174,20.1568224 67.5968452,20.6519421 L70.3644233,20.6519421 L70.3644233,20.4932507 C70.3644233,20.0489125 70.2554563,19.6913314 70.037519,19.4204967 C69.8195817,19.1496621 69.4821014,19.0142467 69.0250678,19.0142467 Z M76.62956,19.3125866 L75.8995796,19.287196 C75.5948905,19.287196 75.3431027,19.348556 75.1442085,19.471278 C74.9453142,19.594 74.7908561,19.7717326 74.6808296,20.0044811 L74.6808296,24.771571 L73.1383491,24.771571 L73.1383491,17.9034069 L74.5475288,17.9034069 L74.6427436,18.8682507 L74.6617866,18.8682507 C74.8352901,18.5254755 75.0553399,18.2578187 75.3219428,18.0652721 C75.5885457,17.8727256 75.9016936,17.7764538 76.261396,17.7764538 C76.362959,17.7764538 76.4645204,17.7838593 76.5660835,17.7986706 C76.6676465,17.8134818 76.7501652,17.8314667 76.8136421,17.8526257 L76.62956,19.3125866 Z" id="Header" fill="#313131"></path>
            </g>
        </g>
    </g>
</svg>