<?xml version="1.0" encoding="UTF-8"?>
<svg width="101px" height="41px" viewBox="0 0 101 41" version="1.1" xmlns="http://www.w3.org/2000/svg" xmlns:xlink="http://www.w3.org/1999/xlink">
    <!-- Generator: Sketch 49.1 (51147) - http://www.bohemiancoding.com/sketch -->
    <title>OrgTemplate2</title>
    <desc>Created with Sketch.</desc>
    <defs>
        <rect id="path-1" x="0.736616338" y="0.699220759" width="100" height="40" rx="1"></rect>
    </defs>
    <g id="Page-1" stroke="none" stroke-width="1" fill="none" fill-rule="evenodd">
        <g id="Org-Chart-settings" transform="translate(-1154.000000, -630.000000)">
            <g id="OrgTemplate2" transform="translate(1154.028262, 630.009040)">
                <g id="Rectangle-30-Copy-6" transform="translate(50.736616, 20.699221) scale(-1, 1) translate(-50.736616, -20.699221) ">
                    <use fill="#FFFFFF" fill-rule="evenodd" xlink:href="#path-1"></use>
                    <rect stroke="#767676" stroke-width="2" x="1.73661634" y="1.69922076" width="98" height="38" rx="1"></rect>
                </g>
                <path d="M38.1636624,16.5176093 L36.6275296,16.5176093 L36.6275296,12.5757147 L32.4888577,12.5757147 L32.4888577,16.5176093 L30.9463772,16.5176093 L30.9463772,7.27542177 L32.4888577,7.27542177 L32.4888577,11.3379218 L36.6275296,11.3379218 L36.6275296,7.27542177 L38.1636624,7.27542177 L38.1636624,16.5176093 Z M42.9370999,16.6445624 C41.9468605,16.6445624 41.1671646,16.3314145 40.5979885,15.7051093 C40.0288125,15.0788041 39.7442288,14.2578487 39.7442288,13.2422186 L39.7442288,12.9883124 C39.7442288,11.9684505 40.0266966,11.1348 40.5916409,10.4873358 C41.1565851,9.83987166 41.8791528,9.51826029 42.7593655,9.52249208 C43.7072869,9.52249208 44.422449,9.79861237 44.9048733,10.3508612 C45.3872976,10.9031101 45.6285061,11.6595316 45.6285061,12.6201483 L45.6285061,13.5278632 L41.2994046,13.5278632 C41.3417225,14.0991551 41.5078178,14.5561818 41.7976956,14.8989569 C42.0875733,15.2417321 42.4991089,15.4131171 43.0323147,15.4131171 C43.4554939,15.4131171 43.812017,15.3633943 44.1018948,15.2639472 C44.3917725,15.1645001 44.6763563,15.0195633 44.9556546,14.8291327 L45.4063381,15.8828436 C45.1481988,16.1071286 44.8138923,16.2901509 44.4034085,16.4319159 C43.9929246,16.5736809 43.50416,16.6445624 42.9370999,16.6445624 Z M42.7593655,10.7602851 C42.3742724,10.7602851 42.0590086,10.9094535 41.8135647,11.2077948 C41.5681208,11.5061362 41.4073151,11.9028607 41.3311428,12.3979804 L44.098721,12.3979804 L44.098721,12.239289 C44.098721,11.7949508 43.9897539,11.4373697 43.7718167,11.1665351 C43.5538794,10.8957004 43.216399,10.7602851 42.7593655,10.7602851 Z M51.004971,16.5176093 C50.9584212,16.3737283 50.9192778,16.2298496 50.8875393,16.0859686 C50.8558009,15.9420877 50.8314684,15.7939772 50.8145413,15.6416327 C50.5817927,15.9378581 50.3003828,16.1790667 49.970303,16.3652655 C49.6402232,16.5514644 49.2678311,16.6445624 48.8531155,16.6445624 C48.1464062,16.6445624 47.603687,16.463656 47.2249417,16.1018378 C46.8461963,15.7400196 46.6568264,15.2332701 46.6568264,14.5815741 C46.6568264,13.9044874 46.9149619,13.3839848 47.4312405,13.0200507 C47.9475191,12.6561166 48.6901875,12.4741522 49.6592678,12.4741522 L50.782803,12.4741522 L50.782803,11.8711249 C50.782803,11.5071908 50.6770098,11.2247229 50.4654202,11.0237128 C50.2538306,10.8227027 49.9449144,10.7221991 49.5386624,10.7221991 C49.1662647,10.7221991 48.8742754,10.8057758 48.6626858,10.9729315 C48.4510962,11.1400873 48.345303,11.3590793 48.345303,11.629914 L46.8028225,11.629914 C46.8028225,11.0543902 47.0620159,10.559278 47.5804104,10.1445624 C48.0988049,9.72984678 48.783287,9.52249208 49.6338772,9.52249208 C50.4506131,9.52249208 51.1033572,9.72244126 51.5921292,10.1223456 C52.0809011,10.5222499 52.3252835,11.1094023 52.3252835,11.8838202 L52.3252835,14.9370429 C52.3252835,15.2290365 52.3432683,15.501983 52.3792385,15.7558905 C52.4152088,16.009798 52.4776268,16.2637018 52.5664944,16.5176093 L51.004971,16.5176093 Z M49.1895413,15.4067694 C49.5450118,15.4067694 49.8634494,15.3305983 50.1448635,15.1782538 C50.4262777,15.0259093 50.6389221,14.8354815 50.782803,14.6069647 L50.782803,13.438996 L49.6338772,13.438996 C49.1726119,13.438996 48.8182046,13.547963 48.5706448,13.7659003 C48.323085,13.9838376 48.1993069,14.2472627 48.1993069,14.5561835 C48.1993069,14.8227864 48.2818256,15.031199 48.4468655,15.1814276 C48.6119054,15.3316562 48.8594615,15.4067694 49.1895413,15.4067694 Z M53.6582913,13.1787421 C53.6582913,12.061549 53.8889205,11.172886 54.3501858,10.5127265 C54.8114511,9.85256691 55.4758325,9.52249208 56.3433499,9.52249208 C56.7242111,9.52249208 57.0574598,9.59443147 57.3431057,9.7383124 C57.6287517,9.88219332 57.8773657,10.0916639 58.0889553,10.3667304 L58.1079983,10.3603827 L58.1079983,6.61526552 L59.6504788,6.61526552 L59.6504788,16.5176093 L58.317471,16.5176093 L58.1905178,15.6797186 C57.9662329,16.0013348 57.7028078,16.2425434 57.4002346,16.4033515 C57.0976615,16.5641596 56.7411384,16.6445624 56.3306546,16.6445624 C55.4716008,16.6445624 54.8114511,16.3441097 54.3501858,15.7431952 C53.8889205,15.1422807 53.6582913,14.3319047 53.6582913,13.3120429 L53.6582913,13.1787421 Z M55.2007717,13.3120429 C55.2007717,13.959507 55.3203181,14.4673145 55.5594143,14.8354804 C55.7985106,15.2036463 56.1867717,15.3877265 56.7242092,15.3877265 C57.054289,15.3877265 57.3304093,15.3200188 57.5525784,15.1846015 C57.7747475,15.0491841 57.9598856,14.8502929 58.1079983,14.5879218 L58.1079983,11.591828 C57.9598856,11.3336887 57.7747475,11.1347975 57.5525784,10.9951483 C57.3304093,10.8554992 57.0585207,10.7856757 56.7369046,10.7856757 C56.199467,10.7856757 55.80909,11.0036097 55.565762,11.4394843 C55.3224339,11.8753588 55.2007717,12.4551057 55.2007717,13.1787421 L55.2007717,13.3120429 Z M64.2525296,16.6445624 C63.2622902,16.6445624 62.4825942,16.3314145 61.9134182,15.7051093 C61.3442422,15.0788041 61.0596585,14.2578487 61.0596585,13.2422186 L61.0596585,12.9883124 C61.0596585,11.9684505 61.3421263,11.1348 61.9070706,10.4873358 C62.4720148,9.83987166 63.1945824,9.51826029 64.0747952,9.52249208 C65.0227166,9.52249208 65.7378787,9.79861237 66.220303,10.3508612 C66.7027273,10.9031101 66.9439358,11.6595316 66.9439358,12.6201483 L66.9439358,13.5278632 L62.6148342,13.5278632 C62.6571522,14.0991551 62.8232475,14.5561818 63.1131253,14.8989569 C63.403003,15.2417321 63.8145386,15.4131171 64.3477444,15.4131171 C64.7709236,15.4131171 65.1274467,15.3633943 65.4173245,15.2639472 C65.7072022,15.1645001 65.991786,15.0195633 66.2710842,14.8291327 L66.7217678,15.8828436 C66.4636285,16.1071286 66.129322,16.2901509 65.7188381,16.4319159 C65.3083543,16.5736809 64.8195897,16.6445624 64.2525296,16.6445624 Z M64.0747952,10.7602851 C63.6897021,10.7602851 63.3744383,10.9094535 63.1289944,11.2077948 C62.8835505,11.5061362 62.7227448,11.9028607 62.6465725,12.3979804 L65.4141506,12.3979804 L65.4141506,12.239289 C65.4141506,11.7949508 65.3051836,11.4373697 65.0872463,11.1665351 C64.8693091,10.8957004 64.5318287,10.7602851 64.0747952,10.7602851 Z M71.6792874,11.0586249 L70.9493069,11.0332343 C70.6446179,11.0332343 70.39283,11.0945943 70.1939358,11.2173163 C69.9950416,11.3400383 69.8405835,11.5177709 69.7305569,11.7505194 L69.7305569,16.5176093 L68.1880764,16.5176093 L68.1880764,9.64944521 L69.5972561,9.64944521 L69.692471,10.614289 L69.7115139,10.614289 C69.8850174,10.2715138 70.1050673,10.003857 70.3716702,9.81131044 C70.6382731,9.61876391 70.951421,9.52249208 71.3111233,9.52249208 C71.4126863,9.52249208 71.5142478,9.52989761 71.6158108,9.54470888 C71.7173738,9.55952015 71.7998925,9.577505 71.8633694,9.59866396 L71.6792874,11.0586249 Z" id="Header" fill="#313131"></path>
                <path d="M36.1138577,27.9843196 C36.1138577,27.6132239 35.9732341,27.3124457 35.6919827,27.0819758 C35.4107313,26.8515059 34.9087832,26.6425236 34.1861233,26.4550227 C33.326744,26.2440841 32.6597585,25.9296341 32.1851467,25.5116633 C31.710535,25.0936925 31.4732327,24.566354 31.4732327,23.9296321 C31.4732327,23.2577537 31.7271364,22.7001421 32.2349514,22.2567805 C32.7427665,21.8134189 33.4107285,21.5917414 34.2388577,21.5917414 C35.1372997,21.5917414 35.8531128,21.8466217 36.3863186,22.3563899 C36.9195244,22.866158 37.1783109,23.4608787 37.1626858,24.1405696 L37.1451077,24.1757258 L36.0435452,24.1757258 C36.0435452,23.6913484 35.8746016,23.2909618 35.5367092,22.9745539 C35.1988169,22.6581461 34.7662041,22.4999446 34.2388577,22.4999446 C33.7036988,22.4999446 33.301359,22.6298261 33.0318264,22.889593 C32.7622938,23.1493599 32.6275296,23.4901768 32.6275296,23.9120539 C32.6275296,24.2870558 32.7788952,24.5985761 33.0816311,24.8466242 C33.384367,25.0946724 33.8853386,25.3104905 34.5845608,25.4940852 C35.4634714,25.7245551 36.130457,26.0390051 36.5855374,26.4374446 C37.0406178,26.835884 37.2681546,27.3475977 37.2681546,27.9726008 C37.2681546,28.6679168 36.9956963,29.2411532 36.4507717,29.6923274 C35.9058471,30.1435015 35.2017526,30.3690852 34.3384671,30.3690852 C33.5142442,30.3690852 32.7867124,30.1386187 32.1558499,29.6776789 C31.5249873,29.2167391 31.2193263,28.5995578 31.2388577,27.8261164 L31.2505764,27.7909602 L32.3521389,27.7909602 C32.3521389,28.3261191 32.5552619,28.7392009 32.9615139,29.030218 C33.367766,29.3212351 33.8267457,29.4667414 34.3384671,29.4667414 C34.8775322,29.4667414 35.308192,29.3270944 35.6304592,29.0477961 C35.9527265,28.7684978 36.1138577,28.4140092 36.1138577,27.9843196 Z M42.6997952,29.3026789 C42.5005754,29.6425244 42.2437421,29.9052171 41.9292874,30.0907649 C41.6148327,30.2763127 41.2544847,30.3690852 40.8482327,30.3690852 C40.156823,30.3690852 39.6177659,30.1483843 39.2310452,29.7069758 C38.8443245,29.2655673 38.6509671,28.5780742 38.6509671,27.6444758 L38.6509671,23.9061946 L39.8052639,23.9061946 L39.8052639,27.6561946 C39.8052639,28.3319792 39.9048723,28.7968183 40.1040921,29.0507258 C40.3033118,29.3046333 40.6138556,29.4315852 41.0357327,29.4315852 C41.445891,29.4315852 41.7847548,29.3476016 42.0523342,29.1796321 C42.3199137,29.0116625 42.5220601,28.7733836 42.6587796,28.4647883 L42.6587796,23.9061946 L43.8130764,23.9061946 L43.8130764,30.2460383 L42.7759671,30.2460383 L42.6997952,29.3026789 Z M50.9087796,27.3163508 C50.9087796,28.2304179 50.6890552,28.9677152 50.2495999,29.5282649 C49.8101445,30.0888145 49.2056584,30.3690852 48.4361233,30.3690852 C48.0142462,30.3690852 47.6480389,30.2860782 47.3374905,30.1200617 C47.0269421,29.9540453 46.7701087,29.7089306 46.5669827,29.3847102 L46.3794827,30.2460383 L45.4947171,30.2460383 L45.4947171,21.1054133 L46.6490139,21.1054133 L46.6490139,24.6561946 C46.8482337,24.3749431 47.0953015,24.1601015 47.3902249,24.0116633 C47.6851482,23.8632251 48.0298713,23.7890071 48.4244046,23.7890071 C49.2056585,23.7890071 49.8150274,24.1015039 50.2525296,24.7265071 C50.6900317,25.3515102 50.9087796,26.1737676 50.9087796,27.1933039 L50.9087796,27.3163508 Z M49.7544827,27.1933039 C49.7544827,26.4667378 49.620695,25.8739703 49.3531155,25.4149836 C49.085536,24.9559969 48.6783135,24.7265071 48.1314358,24.7265071 C47.7759653,24.7265071 47.4761636,24.8134202 47.2320217,24.9872492 C46.9878799,25.1610782 46.7935459,25.3944743 46.6490139,25.6874446 L46.6490139,28.4354914 C46.7974522,28.747993 46.9917862,28.9921312 47.2320217,29.1679133 C47.4722573,29.3436954 47.7759652,29.4315852 48.1431546,29.4315852 C48.686126,29.4315852 49.0904188,29.2382277 49.3560452,28.8515071 C49.6216715,28.4647864 49.7544827,27.9530727 49.7544827,27.3163508 L49.7544827,27.1933039 Z M53.7857327,22.3768977 L53.7857327,23.9061946 L54.9869046,23.9061946 L54.9869046,24.7616633 L53.7857327,24.7616633 L53.7857327,28.6112727 C53.7857327,28.9081492 53.8472555,29.1171314 53.970303,29.2382258 C54.0933505,29.3593202 54.2564348,29.4198664 54.4595608,29.4198664 C54.5259674,29.4198664 54.5992088,29.412054 54.6792874,29.3964289 C54.7593659,29.3808039 54.8306542,29.3612728 54.8931546,29.3378352 L55.0513577,30.1288508 C54.9615135,30.1991637 54.8326085,30.2567803 54.6646389,30.3017024 C54.4966693,30.3466245 54.3306554,30.3690852 54.1665921,30.3690852 C53.701746,30.3690852 53.3296794,30.227485 53.0503811,29.9442805 C52.7710828,29.661076 52.6314358,29.2167445 52.6314358,28.6112727 L52.6314358,24.7616633 L51.6294827,24.7616633 L51.6294827,23.9061946 L52.6314358,23.9061946 L52.6314358,22.3768977 L53.7857327,22.3768977 Z M58.8892483,30.3690852 C57.9439311,30.3690852 57.2046807,30.0770959 56.6714749,29.4931086 C56.1382691,28.9091213 55.8716702,28.1444805 55.8716702,27.1991633 L55.8716702,26.9413508 C55.8716702,26.03119 56.1343629,25.2782678 56.6597561,24.6825617 C57.1851494,24.0868556 57.8267445,23.7890071 58.5845608,23.7890071 C59.4322213,23.7890071 60.0679571,24.0526763 60.4917874,24.5800227 C60.9156176,25.1073691 61.1275296,25.8085339 61.1275296,26.6835383 L61.1275296,27.2929133 L57.0728421,27.2929133 L57.0611233,27.3222102 C57.057217,27.9550258 57.2066296,28.4706457 57.5093655,28.8690852 C57.8121014,29.2675247 58.2720577,29.4667414 58.8892483,29.4667414 C59.2720627,29.4667414 59.5767472,29.4267028 59.8033108,29.3466242 C60.0298744,29.2665457 60.2974499,29.1444766 60.6060452,28.9804133 L60.8931546,29.7948664 C60.682216,29.9472109 60.4253826,30.0809987 60.1226467,30.1962336 C59.8199109,30.3114686 59.4087821,30.3690852 58.8892483,30.3690852 Z M58.5845608,24.6972102 C58.182215,24.6972102 57.8492106,24.8524821 57.5855374,25.1630305 C57.3218642,25.4735789 57.160733,25.8710359 57.1021389,26.3554133 L57.1138577,26.3847102 L59.9732327,26.3847102 L59.9732327,26.2909602 C59.9732327,25.8300204 59.8599526,25.4491648 59.6333889,25.1483821 C59.4068253,24.8475993 59.0572194,24.6972102 58.5845608,24.6972102 Z M64.5728421,26.2440852 L65.9204983,23.9061946 L67.2681546,23.9061946 L65.2115139,27.0409602 L67.3267483,30.2460383 L66.0025296,30.2460383 L64.5962796,27.8495539 L63.1900296,30.2460383 L61.8540921,30.2460383 L63.9693264,27.0409602 L61.9126858,23.9061946 L63.2427639,23.9061946 L64.5728421,26.2440852 Z M69.9283108,22.3768977 L69.9283108,23.9061946 L71.1294827,23.9061946 L71.1294827,24.7616633 L69.9283108,24.7616633 L69.9283108,28.6112727 C69.9283108,28.9081492 69.9898336,29.1171314 70.1128811,29.2382258 C70.2359286,29.3593202 70.3990129,29.4198664 70.6021389,29.4198664 C70.6685455,29.4198664 70.741787,29.412054 70.8218655,29.3964289 C70.901944,29.3808039 70.9732324,29.3612728 71.0357327,29.3378352 L71.1939358,30.1288508 C71.1040916,30.1991637 70.9751866,30.2567803 70.8072171,30.3017024 C70.6392475,30.3466245 70.4732335,30.3690852 70.3091702,30.3690852 C69.8443241,30.3690852 69.4722575,30.227485 69.1929592,29.9442805 C68.913661,29.661076 68.7740139,29.2167445 68.7740139,28.6112727 L68.7740139,24.7616633 L67.7720608,24.7616633 L67.7720608,23.9061946 L68.7740139,23.9061946 L68.7740139,22.3768977 L69.9283108,22.3768977 Z" id="Subtext" fill="#6F6F6F"></path>
            </g>
        </g>
    </g>
</svg>