<?xml version="1.0" encoding="UTF-8"?>
<svg width="24px" height="25px" viewBox="0 0 24 25" version="1.1" xmlns="http://www.w3.org/2000/svg" xmlns:xlink="http://www.w3.org/1999/xlink">
    <!-- Generator: Sketch 49.3 (51167) - http://www.bohemiancoding.com/sketch -->
    <title></title>
    <desc>Created with Sketch.</desc>
    <defs></defs>
    <g id="Page-1" stroke="none" stroke-width="1" fill="none" fill-rule="evenodd">
        <g id="Import" transform="translate(-57.000000, -193.000000)" fill="#EEAF00">
            <path d="M69,193.5 C75.625,193.5 81,198.875 81,205.5 C81,212.125 75.625,217.5 69,217.5 C62.375,217.5 57,212.125 57,205.5 C57,198.875 62.375,193.5 69,193.5 Z M71,212.984375 L71,210.015625 C71,209.734375 70.78125,209.5 70.515625,209.5 L67.515625,209.5 C67.234375,209.5 67,209.734375 67,210.015625 L67,212.984375 C67,213.265625 67.234375,213.5 67.515625,213.5 L70.515625,213.5 C70.78125,213.5 71,213.265625 71,212.984375 Z M70.96875,207.609375 L71.25,197.90625 C71.25,197.796875 71.203125,197.6875 71.09375,197.625 C71,197.546875 70.859375,197.5 70.71875,197.5 L67.28125,197.5 C67.140625,197.5 67,197.546875 66.90625,197.625 C66.796875,197.6875 66.75,197.796875 66.75,197.90625 L67.015625,207.609375 C67.015625,207.828125 67.25,208 67.546875,208 L70.4375,208 C70.71875,208 70.953125,207.828125 70.96875,207.609375 Z" id=""></path>
        </g>
    </g>
</svg>