<?xml version="1.0" encoding="UTF-8"?>
<svg width="135px" height="125px" viewBox="0 0 135 125" version="1.1" xmlns="http://www.w3.org/2000/svg" xmlns:xlink="http://www.w3.org/1999/xlink">
    <!-- Generator: Sketch 50.2 (55047) - http://www.bohemiancoding.com/sketch -->
    <title>blank_diagram_org</title>
    <desc>Created with Sketch.</desc>
    <defs></defs>
    <g id="blank_diagram_org" stroke="none" stroke-width="1" fill="none" fill-rule="evenodd">
        <rect id="Rectangle" stroke="#89BEB3" fill="#B8F4E8" x="46.2277392" y="55.4923239" width="42.5445216" height="14.0153523" rx="3"></rect>
        <path d="M57.1194606,65.5 L57.1194606,59.71875 L57.9241481,59.71875 L60.8343044,64.1835937 L60.8343044,59.71875 L61.5374294,59.71875 L61.5374294,65.5 L60.7366481,65.5 L57.8225856,61.0351562 L57.8225856,65.5 L57.1194606,65.5 Z M65.2403944,64.9609375 C64.7794546,65.3854188 64.3354486,65.5976562 63.9083631,65.5976562 C63.5567989,65.5976562 63.2651351,65.4876313 63.0333631,65.2675781 C62.8015911,65.0475249 62.6857069,64.7695329 62.6857069,64.4335937 C62.6857069,63.9700498 62.8803664,63.6139335 63.2696912,63.3652344 C63.6590161,63.1165352 64.2169532,62.9921875 64.9435194,62.9921875 L65.1271131,62.9921875 L65.1271131,62.4804687 C65.1271131,61.9882788 64.8745115,61.7421875 64.3693006,61.7421875 C63.9630486,61.7421875 63.5242509,61.8671862 63.0528944,62.1171875 L63.0528944,61.4804687 C63.5711261,61.2695302 64.0567984,61.1640625 64.5099256,61.1640625 C64.9838863,61.1640625 65.3334922,61.2708323 65.5587537,61.484375 C65.7840153,61.6979177 65.8966444,62.0299457 65.8966444,62.4804687 L65.8966444,64.4023437 C65.8966444,64.8424501 66.0320597,65.0625 66.3028944,65.0625 C66.3367487,65.0625 66.3862274,65.0572917 66.4513319,65.046875 L66.5060194,65.4726562 C66.3315393,65.55599 66.1388329,65.5976562 65.9278944,65.5976562 C65.5685176,65.5976562 65.3393532,65.3854188 65.2403944,64.9609375 Z M65.1271131,64.5429687 L65.1271131,63.4453125 L64.8693006,63.4375 C64.4474235,63.4375 64.1062811,63.5175773 63.8458631,63.6777344 C63.5854452,63.8378914 63.4552381,64.0481758 63.4552381,64.3085937 C63.4552381,64.4934905 63.5203416,64.6497389 63.6505506,64.7773437 C63.7807596,64.9049486 63.9396122,64.96875 64.1271131,64.96875 C64.4474272,64.96875 64.7807572,64.8268243 65.1271131,64.5429687 Z M67.4707031,65.5 L67.4707031,61.2578125 L68.2402344,61.2578125 L68.2402344,62.0546875 C68.6152362,61.4609345 69.0970023,61.1640625 69.6855469,61.1640625 C70.253258,61.1640625 70.6399729,61.4609345 70.8457031,62.0546875 C71.2102883,61.4583304 71.6842419,61.1601562 72.2675781,61.1601562 C72.64258,61.1601562 72.9329417,61.2701812 73.1386719,61.4902344 C73.3444021,61.7102876 73.4472656,62.0182272 73.4472656,62.4140625 L73.4472656,65.5 L72.6738281,65.5 L72.6738281,62.5351562 C72.6738281,62.0507788 72.4824238,61.8085937 72.0996094,61.8085937 C71.7011699,61.8085937 71.2832053,62.091143 70.8457031,62.65625 L70.8457031,65.5 L70.0722656,65.5 L70.0722656,62.5351562 C70.0722656,62.0481746 69.8769551,61.8046875 69.4863281,61.8046875 C69.0983054,61.8046875 68.6829449,62.0885388 68.2402344,62.65625 L68.2402344,65.5 L67.4707031,65.5 Z M78.0486681,65.3632812 C77.5330405,65.519532 77.0916387,65.5976562 76.7244494,65.5976562 C76.0994463,65.5976562 75.5896857,65.389976 75.1951525,64.9746094 C74.8006193,64.5592427 74.6033556,64.0208366 74.6033556,63.359375 C74.6033556,62.7161426 74.777182,62.1888041 75.12484,61.7773437 C75.472498,61.3658834 75.917155,61.1601562 76.4588244,61.1601562 C76.9718478,61.1601562 77.3683282,61.3424461 77.6482775,61.7070312 C77.9282268,62.0716164 78.0681994,62.5898404 78.0681994,63.2617187 L78.0642931,63.5 L75.3885119,63.5 C75.5004916,64.5078175 75.9939763,65.0117187 76.8689806,65.0117187 C77.1892947,65.0117187 77.58252,64.9257821 78.0486681,64.7539062 L78.0486681,65.3632812 Z M75.4236681,62.921875 L77.2947619,62.921875 C77.2947619,62.1328086 77.000494,61.7382812 76.4119494,61.7382812 C75.8208006,61.7382812 75.4913768,62.1328086 75.4236681,62.921875 Z" id="Name" fill="#000000"></path>
    </g>
</svg>