<?xml version="1.0" encoding="UTF-8"?>
<svg width="135px" height="125px" viewBox="0 0 135 125" version="1.1" xmlns="http://www.w3.org/2000/svg" xmlns:xlink="http://www.w3.org/1999/xlink">
    <!-- Generator: Sketch 50.2 (55047) - http://www.bohemiancoding.com/sketch -->
    <title>blank_diagram_mind</title>
    <desc>Created with Sketch.</desc>
    <defs></defs>
    <g id="blank_diagram_mind" stroke="none" stroke-width="1" fill="none" fill-rule="evenodd">
        <rect id="Rectangle" stroke="#A4E1F5" fill="#DAF6FF" x="46.2277392" y="55.4923239" width="42.5445216" height="14.0153523" rx="3"></rect>
        <path d="M50.2460938,65.5 L50.2460938,59.71875 L51.3828125,59.71875 L52.984375,64.1914062 L54.6328125,59.71875 L55.6484375,59.71875 L55.6484375,65.5 L54.8828125,65.5 L54.8828125,60.796875 L53.2890625,65.1132812 L52.4960938,65.1132812 L50.9492188,60.7851562 L50.9492188,65.5 L50.2460938,65.5 Z M57.1599963,65.5 L57.1599963,61.2578125 L57.9295275,61.2578125 L57.9295275,65.5 L57.1599963,65.5 Z M57.1599963,60.4882812 L57.1599963,59.71875 L57.9295275,59.71875 L57.9295275,60.4882812 L57.1599963,60.4882812 Z M59.4723363,65.5 L59.4723363,61.2578125 L60.2418675,61.2578125 L60.2418675,62.0546875 C60.6481195,61.4609345 61.1455104,61.1640625 61.734055,61.1640625 C62.1012443,61.1640625 62.3942102,61.2805978 62.6129613,61.5136719 C62.8317123,61.746746 62.9410863,62.0598939 62.9410863,62.453125 L62.9410863,65.5 L62.171555,65.5 L62.171555,62.703125 C62.171555,62.3880193 62.1253315,62.1634121 62.0328831,62.0292969 C61.9404347,61.8951816 61.7874415,61.828125 61.5738988,61.828125 C61.1025422,61.828125 60.6585363,62.1367157 60.2418675,62.7539062 L60.2418675,65.5 L59.4723363,65.5 Z M67.1596763,65.5 L67.1596763,64.703125 C66.8471747,65.2994821 66.3758252,65.5976562 65.7456138,65.5976562 C65.2351945,65.5976562 64.8335058,65.4114602 64.5405356,65.0390625 C64.2475654,64.6666648 64.1010825,64.1575553 64.1010825,63.5117187 C64.1010825,62.8059861 64.2670965,62.2382834 64.5991294,61.8085937 C64.9311623,61.3789041 65.3680069,61.1640625 65.9096763,61.1640625 C66.4122829,61.1640625 66.8289454,61.3567689 67.1596763,61.7421875 L67.1596763,59.3320312 L67.9331138,59.3320312 L67.9331138,65.5 L67.1596763,65.5 Z M67.1596763,62.2695312 C66.7612368,61.917967 66.3836364,61.7421875 66.0268638,61.7421875 C65.2898809,61.7421875 64.921395,62.3059839 64.921395,63.4335937 C64.921395,64.4257862 65.2495167,64.921875 65.90577,64.921875 C66.3328555,64.921875 66.75082,64.6888044 67.1596763,64.2226562 L67.1596763,62.2695312 Z M69.4485788,65.5 L69.4485788,59.71875 L70.5852975,59.71875 L72.18686,64.1914062 L73.8352975,59.71875 L74.8509225,59.71875 L74.8509225,65.5 L74.0852975,65.5 L74.0852975,60.796875 L72.4915475,65.1132812 L71.6985788,65.1132812 L70.1517038,60.7851562 L70.1517038,65.5 L69.4485788,65.5 Z M78.5499813,64.9609375 C78.0890414,65.3854188 77.6450355,65.5976562 77.21795,65.5976562 C76.8663857,65.5976562 76.574722,65.4876313 76.34295,65.2675781 C76.111178,65.0475249 75.9952938,64.7695329 75.9952938,64.4335937 C75.9952938,63.9700498 76.1899533,63.6139335 76.5792781,63.3652344 C76.968603,63.1165352 77.5265401,62.9921875 78.2531063,62.9921875 L78.4367,62.9921875 L78.4367,62.4804687 C78.4367,61.9882788 78.1840984,61.7421875 77.6788875,61.7421875 C77.2726355,61.7421875 76.8338378,61.8671862 76.3624813,62.1171875 L76.3624813,61.4804687 C76.880713,61.2695302 77.3663852,61.1640625 77.8195125,61.1640625 C78.2934732,61.1640625 78.6430791,61.2708323 78.8683406,61.484375 C79.0936022,61.6979177 79.2062313,62.0299457 79.2062313,62.4804687 L79.2062313,64.4023437 C79.2062313,64.8424501 79.3416466,65.0625 79.6124813,65.0625 C79.6463356,65.0625 79.6958143,65.0572917 79.7609188,65.046875 L79.8156063,65.4726562 C79.6411262,65.55599 79.4484198,65.5976562 79.2374813,65.5976562 C78.8781045,65.5976562 78.6489401,65.3854188 78.5499813,64.9609375 Z M78.4367,64.5429687 L78.4367,63.4453125 L78.1788875,63.4375 C77.7570104,63.4375 77.415868,63.5175773 77.15545,63.6777344 C76.895032,63.8378914 76.764825,64.0481758 76.764825,64.3085937 C76.764825,64.4934905 76.8299285,64.6497389 76.9601375,64.7773437 C77.0903465,64.9049486 77.2491991,64.96875 77.4367,64.96875 C77.7570141,64.96875 78.0903441,64.8268243 78.4367,64.5429687 Z M80.78029,67.0429687 L80.78029,61.2578125 L81.5498213,61.2578125 L81.5498213,62.0546875 C81.864927,61.4609345 82.3375785,61.1640625 82.96779,61.1640625 C83.4782092,61.1640625 83.8798979,61.3502586 84.1728681,61.7226562 C84.4658383,62.0950539 84.6123213,62.6041634 84.6123213,63.25 C84.6123213,63.9531285 84.4463073,64.5201801 84.1142744,64.9511719 C83.7822415,65.3821636 83.3453969,65.5976562 82.8037275,65.5976562 C82.3011208,65.5976562 81.8831563,65.4049498 81.5498213,65.0195312 L81.5498213,67.0429687 L80.78029,67.0429687 Z M81.5498213,64.4882812 C81.9456566,64.8424497 82.323257,65.0195312 82.6826338,65.0195312 C83.4222208,65.0195312 83.7920088,64.4557348 83.7920088,63.328125 C83.7920088,62.3333284 83.463887,61.8359375 82.8076338,61.8359375 C82.3779441,61.8359375 81.9586775,62.0690081 81.5498213,62.5351562 L81.5498213,64.4882812 Z" id="MindMap" fill="#000000"></path>
    </g>
</svg>