<?xml version="1.0" encoding="utf-8"?>
<!-- Generator: Adobe Illustrator 21.1.0, SVG Export Plug-In . SVG Version: 6.00 Build 0)  -->
<svg version="1.1" id="Layer_1" xmlns="http://www.w3.org/2000/svg" xmlns:xlink="http://www.w3.org/1999/xlink" x="0px" y="0px"
	 viewBox="0 0 32 32" style="enable-background:new 0 0 32 32;" xml:space="preserve">
<style type="text/css">
	.st0{fill:#6CA4D9;}
	.st1{fill:#FFFFFF;stroke:#000000;stroke-width:3;stroke-miterlimit:10;}
	.st2{fill:#626262;}
	.st3{fill:none;stroke:#000000;stroke-width:3;stroke-miterlimit:10;}
	.st4{fill:#FFFFFF;stroke:#000000;stroke-width:3;stroke-linecap:round;stroke-miterlimit:10;}
	.st5{fill:none;stroke:#000000;stroke-width:3;stroke-linecap:round;stroke-miterlimit:10;}
	.st6{fill:#C0C0C0;stroke:#000000;stroke-width:3;stroke-miterlimit:10;}
	.st7{fill:none;stroke:#171B1F;stroke-width:3;stroke-miterlimit:10;}
	.st8{fill:none;stroke:#6CA4D9;stroke-width:2;stroke-miterlimit:10;}
	.st9{fill:none;stroke:#6CA4D9;stroke-width:2;stroke-linecap:round;stroke-miterlimit:10;}
	.st10{fill-rule:evenodd;clip-rule:evenodd;fill:#4A4A4A;}
	.st11{fill:#FFFFFF;}
	.st12{fill:#C0C0C0;}
	.st13{fill:#171B1F;}
</style>
<g>
	<g>
		<rect x="5" y="15" class="st0" width="10" height="2"/>
	</g>
	<g>
		<polygon class="st0" points="18,22 13,16 18,10 20.8,14 19.1,15.1 17.9,13.3 15.6,16 17.9,18.7 19.1,16.9 20.8,18 		"/>
	</g>
	<g>
		<path class="st0" d="M23,21.3c-2.3,0-4-2.3-4-5.3s1.8-5.3,4-5.3c2.3,0,4,2.3,4,5.3S25.2,21.3,23,21.3z M23,12.7
			c-1.1,0-2,1.6-2,3.3s0.9,3.3,2,3.3s2-1.6,2-3.3S24.1,12.7,23,12.7z"/>
	</g>
</g>
</svg>
