<?xml version="1.0" encoding="UTF-8"?>
<svg width="18px" height="16px" viewBox="0 0 18 16" version="1.1" xmlns="http://www.w3.org/2000/svg" xmlns:xlink="http://www.w3.org/1999/xlink">
    <!-- Generator: Sketch 50.2 (55047) - http://www.bohemiancoding.com/sketch -->
    <title>Overview</title>
    <desc>Created with Sketch.</desc>
    <defs></defs>
    <g id="Page-1" stroke="none" stroke-width="1" fill="none" fill-rule="evenodd">
        <path d="M13.315164,9.07692308 C13.315164,7.29567308 11.8656448,5.84615385 10.0843948,5.84615385 C8.30314475,5.84615385 6.85362552,7.29567308 6.85362552,9.07692308 C6.85362552,10.8581731 8.30314475,12.3076923 10.0843948,12.3076923 C11.8656448,12.3076923 13.315164,10.8581731 13.315164,9.07692308 Z M2.99252832,14 L5.00747168,14 L5.00747168,16 L2.99252832,16 L0.992528324,16 L0.992528324,0 L2.99252832,0 L17.0074717,1.46957616e-15 L17.0074717,2 L17.0074717,4 L15.0074717,4 L15.0074717,2 L2.99252832,2 L2.99252832,14 Z M17.0074717,15.0769231 C17.0074717,15.5817308 16.5892024,16 16.0843948,16 C15.8392024,16 15.6012217,15.8990385 15.4353563,15.7259615 L12.9617986,13.2596154 C12.1180486,13.84375 11.1084332,14.1538462 10.0843948,14.1538462 C7.27910629,14.1538462 5.00747168,11.8822115 5.00747168,9.07692308 C5.00747168,6.27163462 7.27910629,4 10.0843948,4 C12.8896832,4 15.1613178,6.27163462 15.1613178,9.07692308 C15.1613178,10.1009615 14.8512217,11.1105769 14.2670871,11.9543269 L16.7406448,14.4278846 C16.9065101,14.59375 17.0074717,14.8317308 17.0074717,15.0769231 Z" id="Overview" fill="#046AE5"></path>
    </g>
</svg>