<?xml version="1.0" encoding="UTF-8"?>
<svg width="17px" height="16px" viewBox="0 0 17 16" version="1.1" xmlns="http://www.w3.org/2000/svg" xmlns:xlink="http://www.w3.org/1999/xlink">
    <!-- Generator: Sketch 50.2 (55047) - http://www.bohemiancoding.com/sketch -->
    <title>Overview - Normal</title>
    <desc>Created with Sketch.</desc>
    <defs></defs>
    <g id="Page-1" stroke="none" stroke-width="1" fill="none" fill-rule="evenodd">
        <path d="M13.3076923,9.07692308 C13.3076923,7.29567308 11.8581731,5.84615385 10.0769231,5.84615385 C8.29567308,5.84615385 6.84615385,7.29567308 6.84615385,9.07692308 C6.84615385,10.8581731 8.29567308,12.3076923 10.0769231,12.3076923 C11.8581731,12.3076923 13.3076923,10.8581731 13.3076923,9.07692308 Z M2.98505665,14 L5,14 L5,16 L2.98505665,16 L0.985056648,16 L0.985056648,0 L2.98505665,0 L17,1.46957616e-15 L17,2 L17,4 L15,4 L15,2 L2.98505665,2 L2.98505665,14 Z M17,15.0769231 C17,15.5817308 16.5817308,16 16.0769231,16 C15.8317308,16 15.59375,15.8990385 15.4278846,15.7259615 L12.9543269,13.2596154 C12.1105769,13.84375 11.1009615,14.1538462 10.0769231,14.1538462 C7.27163462,14.1538462 5,11.8822115 5,9.07692308 C5,6.27163462 7.27163462,4 10.0769231,4 C12.8822115,4 15.1538462,6.27163462 15.1538462,9.07692308 C15.1538462,10.1009615 14.84375,11.1105769 14.2596154,11.9543269 L16.7331731,14.4278846 C16.8990385,14.59375 17,14.8317308 17,15.0769231 Z" id="Overview---Normal" fill="#4A4A4A"></path>
    </g>
</svg>